<svg width="42" height="52" viewBox="0 0 42 52" fill="none" xmlns="http://www.w3.org/2000/svg">
<path d="M34 0C38.4183 0 42 3.58172 42 8V44C42 48.4183 38.4183 52 34 52H8C3.58172 52 0 48.4183 0 44V8C0 3.58172 3.58172 0 8 0H34Z" fill="white"/>
<path d="M34 0C38.4183 0 42 3.58172 42 8V44C42 48.4183 38.4183 52 34 52H8C3.58172 52 0 48.4183 0 44V8C0 3.58172 3.58172 0 8 0H34Z" stroke="#E5E7EB"/>
<path d="M21 36.5C19.95 36.5 19.0625 36.1375 18.3375 35.4125C17.6125 34.6875 17.25 33.8 17.25 32.75C17.25 31.8833 17.5083 31.1208 18.025 30.4625C18.5417 29.8042 19.2 29.3583 20 29.125V27H14V23H11.5V16H18.5V23H16V25H26V22.875C25.2 22.6417 24.5417 22.1958 24.025 21.5375C23.5083 20.8792 23.25 20.1167 23.25 19.25C23.25 18.2 23.6125 17.3125 24.3375 16.5875C25.0625 15.8625 25.95 15.5 27 15.5C28.05 15.5 28.9375 15.8625 29.6625 16.5875C30.3875 17.3125 30.75 18.2 30.75 19.25C30.75 20.1167 30.4917 20.8792 29.975 21.5375C29.4583 22.1958 28.8 22.6417 28 22.875V27H22V29.125C22.8 29.3583 23.4583 29.8042 23.975 30.4625C24.4917 31.1208 24.75 31.8833 24.75 32.75C24.75 33.8 24.3875 34.6875 23.6625 35.4125C22.9375 36.1375 22.05 36.5 21 36.5Z" fill="#3C6B59"/>
</svg>
