<svg width="20" height="20" viewBox="0 0 20 20" fill="none" xmlns="http://www.w3.org/2000/svg">
<path d="M10.4167 9.95703C10.8194 9.51259 11.1285 9.00564 11.3438 8.4362C11.559 7.86675 11.6667 7.27648 11.6667 6.66536C11.6667 6.05425 11.559 5.46398 11.3438 4.89453C11.1285 4.32509 10.8194 3.81814 10.4167 3.3737C11.25 3.48481 11.9444 3.85286 12.5 4.47786C13.0556 5.10286 13.3333 5.83203 13.3333 6.66536C13.3333 7.4987 13.0556 8.22786 12.5 8.85286C11.9444 9.47786 11.25 9.84592 10.4167 9.95703ZM15 16.6654V14.1654C15 13.6654 14.8889 13.1897 14.6667 12.7383C14.4444 12.2869 14.1528 11.8876 13.7917 11.5404C14.5 11.7904 15.1562 12.1133 15.7604 12.5091C16.3646 12.9049 16.6667 13.457 16.6667 14.1654V16.6654H15ZM16.6667 10.832V9.16536H15V7.4987H16.6667V5.83203H18.3333V7.4987H20V9.16536H18.3333V10.832H16.6667ZM6.66667 9.9987C5.75 9.9987 4.96528 9.67231 4.3125 9.01953C3.65972 8.36675 3.33333 7.58203 3.33333 6.66536C3.33333 5.7487 3.65972 4.96398 4.3125 4.3112C4.96528 3.65842 5.75 3.33203 6.66667 3.33203C7.58333 3.33203 8.36806 3.65842 9.02083 4.3112C9.67361 4.96398 10 5.7487 10 6.66536C10 7.58203 9.67361 8.36675 9.02083 9.01953C8.36806 9.67231 7.58333 9.9987 6.66667 9.9987ZM0 16.6654V14.332C0 13.8598 0.121528 13.4258 0.364583 13.0299C0.607639 12.6341 0.930556 12.332 1.33333 12.1237C2.19444 11.6931 3.06944 11.3702 3.95833 11.1549C4.84722 10.9397 5.75 10.832 6.66667 10.832C7.58333 10.832 8.48611 10.9397 9.375 11.1549C10.2639 11.3702 11.1389 11.6931 12 12.1237C12.4028 12.332 12.7257 12.6341 12.9688 13.0299C13.2118 13.4258 13.3333 13.8598 13.3333 14.332V16.6654H0ZM6.66667 8.33203C7.125 8.33203 7.51736 8.16884 7.84375 7.84245C8.17014 7.51606 8.33333 7.1237 8.33333 6.66536C8.33333 6.20703 8.17014 5.81467 7.84375 5.48828C7.51736 5.16189 7.125 4.9987 6.66667 4.9987C6.20833 4.9987 5.81597 5.16189 5.48958 5.48828C5.16319 5.81467 5 6.20703 5 6.66536C5 7.1237 5.16319 7.51606 5.48958 7.84245C5.81597 8.16884 6.20833 8.33203 6.66667 8.33203ZM1.66667 14.9987H11.6667V14.332C11.6667 14.1793 11.6285 14.0404 11.5521 13.9154C11.4757 13.7904 11.375 13.6931 11.25 13.6237C10.5 13.2487 9.74306 12.9674 8.97917 12.7799C8.21528 12.5924 7.44444 12.4987 6.66667 12.4987C5.88889 12.4987 5.11806 12.5924 4.35417 12.7799C3.59028 12.9674 2.83333 13.2487 2.08333 13.6237C1.95833 13.6931 1.85764 13.7904 1.78125 13.9154C1.70486 14.0404 1.66667 14.1793 1.66667 14.332V14.9987Z" fill="#6F6F6F"/>
</svg>
