<svg width="20" height="20" viewBox="0 0 20 20" fill="none" xmlns="http://www.w3.org/2000/svg">
<path d="M3.33317 17.5C2.87484 17.5 2.48248 17.3368 2.15609 17.0104C1.8297 16.684 1.6665 16.2917 1.6665 15.8333V4.16667C1.6665 3.70833 1.8297 3.31597 2.15609 2.98958C2.48248 2.66319 2.87484 2.5 3.33317 2.5H16.6665C17.1248 2.5 17.5172 2.66319 17.8436 2.98958C18.17 3.31597 18.3332 3.70833 18.3332 4.16667V15.8333C18.3332 16.2917 18.17 16.684 17.8436 17.0104C17.5172 17.3368 17.1248 17.5 16.6665 17.5H3.33317ZM3.33317 15.8333H16.6665V4.16667H3.33317V15.8333ZM4.99984 14.1667H14.9998V12.5H4.99984V14.1667ZM4.99984 10.8333H8.33317V5.83333H4.99984V10.8333ZM9.99984 10.8333H14.9998V9.16667H9.99984V10.8333ZM9.99984 7.5H14.9998V5.83333H9.99984V7.5Z" fill="#6F6F6F"/>
</svg>
