<svg width="20" height="20" viewBox="0 0 20 20" fill="none" xmlns="http://www.w3.org/2000/svg">
<path d="M3.33317 18.3346C2.87484 18.3346 2.48248 18.1714 2.15609 17.8451C1.8297 17.5187 1.6665 17.1263 1.6665 16.668V6.66797C1.6665 6.20964 1.8297 5.81727 2.15609 5.49089C2.48248 5.1645 2.87484 5.0013 3.33317 5.0013H6.6665L9.99984 1.66797L13.3332 5.0013H16.6665C17.1248 5.0013 17.5172 5.1645 17.8436 5.49089C18.17 5.81727 18.3332 6.20964 18.3332 6.66797V16.668C18.3332 17.1263 18.17 17.5187 17.8436 17.8451C17.5172 18.1714 17.1248 18.3346 16.6665 18.3346H3.33317ZM4.99984 15.0013H14.9998L11.8748 10.8346L9.37484 14.168L7.49984 11.668L4.99984 15.0013ZM14.5832 10.8346C14.9304 10.8346 15.2255 10.7131 15.4686 10.4701C15.7116 10.227 15.8332 9.93186 15.8332 9.58463C15.8332 9.23741 15.7116 8.94227 15.4686 8.69922C15.2255 8.45616 14.9304 8.33463 14.5832 8.33463C14.2359 8.33463 13.9408 8.45616 13.6978 8.69922C13.4547 8.94227 13.3332 9.23741 13.3332 9.58463C13.3332 9.93186 13.4547 10.227 13.6978 10.4701C13.9408 10.7131 14.2359 10.8346 14.5832 10.8346ZM8.4165 5.0013H11.5832L9.99984 3.41797L8.4165 5.0013Z" fill="#6F6F6F"/>
</svg>
