<svg width="20" height="20" viewBox="0 0 20 20" fill="none" xmlns="http://www.w3.org/2000/svg">
<path d="M3.33317 18.3346C2.87484 18.3346 2.48248 18.1714 2.15609 17.8451C1.8297 17.5187 1.6665 17.1263 1.6665 16.668V7.5013C1.6665 7.04297 1.8297 6.65061 2.15609 6.32422C2.48248 5.99783 2.87484 5.83464 3.33317 5.83464H7.49984V3.33464C7.49984 2.8763 7.66303 2.48394 7.98942 2.15755C8.31581 1.83116 8.70817 1.66797 9.1665 1.66797H10.8332C11.2915 1.66797 11.6839 1.83116 12.0103 2.15755C12.3366 2.48394 12.4998 2.8763 12.4998 3.33464V5.83464H16.6665C17.1248 5.83464 17.5172 5.99783 17.8436 6.32422C18.17 6.65061 18.3332 7.04297 18.3332 7.5013V16.668C18.3332 17.1263 18.17 17.5187 17.8436 17.8451C17.5172 18.1714 17.1248 18.3346 16.6665 18.3346H3.33317ZM3.33317 16.668H16.6665V7.5013H12.4998C12.4998 7.95964 12.3366 8.352 12.0103 8.67839C11.6839 9.00478 11.2915 9.16797 10.8332 9.16797H9.1665C8.70817 9.16797 8.31581 9.00478 7.98942 8.67839C7.66303 8.352 7.49984 7.95964 7.49984 7.5013H3.33317V16.668ZM4.99984 15.0013H9.99984V14.6263C9.99984 14.3902 9.93387 14.1714 9.80192 13.9701C9.66998 13.7687 9.48595 13.6124 9.24984 13.5013C8.97206 13.3763 8.69081 13.2826 8.40609 13.2201C8.12137 13.1576 7.81928 13.1263 7.49984 13.1263C7.18039 13.1263 6.87831 13.1576 6.59359 13.2201C6.30887 13.2826 6.02762 13.3763 5.74984 13.5013C5.51373 13.6124 5.3297 13.7687 5.19775 13.9701C5.06581 14.1714 4.99984 14.3902 4.99984 14.6263V15.0013ZM11.6665 13.7513H14.9998V12.5013H11.6665V13.7513ZM7.49984 12.5013C7.84706 12.5013 8.1422 12.3798 8.38525 12.1367C8.62831 11.8937 8.74984 11.5985 8.74984 11.2513C8.74984 10.9041 8.62831 10.6089 8.38525 10.3659C8.1422 10.1228 7.84706 10.0013 7.49984 10.0013C7.15262 10.0013 6.85748 10.1228 6.61442 10.3659C6.37137 10.6089 6.24984 10.9041 6.24984 11.2513C6.24984 11.5985 6.37137 11.8937 6.61442 12.1367C6.85748 12.3798 7.15262 12.5013 7.49984 12.5013ZM11.6665 11.2513H14.9998V10.0013H11.6665V11.2513ZM9.1665 7.5013H10.8332V3.33464H9.1665V7.5013Z" fill="#6F6F6F"/>
</svg>
