<svg width="42" height="52" viewBox="0 0 42 52" fill="none" xmlns="http://www.w3.org/2000/svg">
<path d="M34 0C38.4183 0 42 3.58172 42 8V44C42 48.4183 38.4183 52 34 52H8C3.58172 52 0 48.4183 0 44V8C0 3.58172 3.58172 0 8 0H34Z" fill="white"/>
<path d="M34 0C38.4183 0 42 3.58172 42 8V44C42 48.4183 38.4183 52 34 52H8C3.58172 52 0 48.4183 0 44V8C0 3.58172 3.58172 0 8 0H34Z" stroke="#E5E7EB"/>
<path d="M15 36C14.45 36 13.9792 35.8042 13.5875 35.4125C13.1958 35.0208 13 34.55 13 34V22L19 16H27C27.55 16 28.0208 16.1958 28.4125 16.5875C28.8042 16.9792 29 17.45 29 18V34C29 34.55 28.8042 35.0208 28.4125 35.4125C28.0208 35.8042 27.55 36 27 36H15ZM18 25H20V21H18V25ZM21 25H23V21H21V25ZM24 25H26V21H24V25Z" fill="#B46900"/>
</svg>
