<svg width="42" height="52" viewBox="0 0 42 52" fill="none" xmlns="http://www.w3.org/2000/svg">
<path d="M34 0C38.4183 0 42 3.58172 42 8V44C42 48.4183 38.4183 52 34 52H8C3.58172 52 0 48.4183 0 44V8C0 3.58172 3.58172 0 8 0H34Z" fill="white"/>
<path d="M34 0C38.4183 0 42 3.58172 42 8V44C42 48.4183 38.4183 52 34 52H8C3.58172 52 0 48.4183 0 44V8C0 3.58172 3.58172 0 8 0H34Z" stroke="#E5E7EB"/>
<path d="M13 36C12.45 36 11.9792 35.8042 11.5875 35.4125C11.1958 35.0208 11 34.55 11 34V22C11 21.45 11.1958 20.9792 11.5875 20.5875C11.9792 20.1958 12.45 20 13 20H17V18C17 17.45 17.1958 16.9792 17.5875 16.5875C17.9792 16.1958 18.45 16 19 16H23C23.55 16 24.0208 16.1958 24.4125 16.5875C24.8042 16.9792 25 17.45 25 18V20H29C29.55 20 30.0208 20.1958 30.4125 20.5875C30.8042 20.9792 31 21.45 31 22V34C31 34.55 30.8042 35.0208 30.4125 35.4125C30.0208 35.8042 29.55 36 29 36H13ZM13 34H29V22H13V34ZM19 20H23V18H19V20ZM20 29V32H22V29H25V27H22V24H20V27H17V29H20Z" fill="#3C6B59"/>
</svg>
