<svg width="209" height="40" viewBox="0 0 209 40" fill="none" xmlns="http://www.w3.org/2000/svg">
<g clip-path="url(#clip0_28_30651)">
<mask id="mask0_28_30651" style="mask-type:luminance" maskUnits="userSpaceOnUse" x="0" y="0" width="42" height="40">
<path d="M42 0H0V40H42V0Z" fill="white"/>
</mask>
<g mask="url(#mask0_28_30651)">
<mask id="mask1_28_30651" style="mask-type:luminance" maskUnits="userSpaceOnUse" x="-25" y="-17" width="92" height="91">
<path d="M66.1139 -16.4219H-24.1143V73.8063H66.1139V-16.4219Z" fill="white"/>
</mask>
<g mask="url(#mask1_28_30651)">
<path d="M11.4838 12.3031C12.7789 12.424 14.2281 12.7861 15.1354 13.7883C15.7176 14.5895 16.0783 15.3972 16.081 16.3865C16.0781 17.1081 16.0781 17.1081 16.4182 17.7221C16.5334 17.8274 16.6511 17.93 16.7706 18.0305C16.9127 18.1749 17.054 18.3199 17.1947 18.4656C17.4435 18.7218 17.4435 18.7218 17.7399 18.9117C17.7886 17.3571 17.5468 16.4044 16.5063 15.2109C16.5644 15.1818 16.6226 15.1527 16.6825 15.1228C17.3419 15.3798 17.787 15.7599 18.1147 16.3939C18.3896 17.0461 18.5181 17.6831 18.5849 18.3856C18.7336 19.8722 19.3614 20.8829 20.197 22.0964C20.2952 22.26 20.2457 22.177 20.2839 22.244C20.3221 22.311 20.3492 22.1573 20.3997 22.0142C20.4501 21.8711 20.4727 21.4363 20.4676 20.9363C20.4665 20.7665 20.4664 20.5967 20.4674 20.4269C20.5141 19.3144 20.5141 19.3144 20.0804 18.3313C19.9765 18.2302 19.872 18.1298 19.7665 18.0305C19.4148 17.4403 19.4274 16.7584 19.5021 16.092C19.7295 15.2067 20.3194 14.2307 21.0882 13.713C21.5297 14.0901 21.8133 14.4784 22.085 14.9851C22.1295 15.0671 22.1295 15.0671 22.175 15.1507C22.5412 15.8579 22.716 16.6049 22.5286 17.3903C22.3615 17.9097 22.1597 18.2568 21.748 18.6174C21.3782 19.1988 21.5153 20.1246 21.5177 20.7896C21.5174 20.8828 21.5171 20.976 21.5167 21.072C21.5168 21.162 21.5169 21.252 21.517 21.3448C21.5172 21.4658 21.5172 21.4658 21.5173 21.5892C21.5288 21.8208 21.5655 22.0342 21.6169 22.26C21.7996 22 21.9809 21.739 22.1621 21.478C22.213 21.4055 22.2639 21.333 22.3164 21.2584C22.9733 20.3084 23.2715 19.5281 23.4287 18.3775C23.6227 16.9688 23.9189 16.1207 25.0543 15.2391C25.2295 15.1228 25.2295 15.1228 25.4057 15.1228C25.2759 15.5031 25.0784 15.7824 24.8385 16.103C24.1784 17.0308 24.1317 17.8902 24.1722 18.9998C24.2306 18.9466 24.2891 18.8935 24.3494 18.8387C24.4272 18.7683 24.505 18.6978 24.5852 18.6253C24.7002 18.521 24.7002 18.521 24.8175 18.4146C25.0533 18.2067 25.0533 18.2067 25.2808 18.0429C25.6487 17.7172 25.8564 17.3748 25.8876 16.8868C25.8896 16.7632 25.8905 16.6396 25.8904 16.5161C25.928 15.3338 26.3048 14.3516 27.1735 13.5202C28.0619 12.8202 29.3795 12.2603 30.5163 12.3031C30.5653 14.0054 30.444 15.4111 29.2672 16.7288C28.6993 17.2865 28.037 17.4922 27.2782 17.6726C26.6773 17.8214 26.3477 18.0202 25.9344 18.4711C25.8152 18.5868 25.6959 18.7025 25.5765 18.818C25.2399 19.1598 24.9196 19.5123 24.6127 19.8809C24.5674 19.935 24.5221 19.989 24.4754 20.0447C24.0736 20.5498 23.5554 21.247 23.5554 21.9075C23.6641 21.8358 23.6641 21.8358 23.775 21.7626C24.5314 21.2734 25.1858 21.0088 26.0785 20.8492C27.1676 20.6501 27.6884 20.2369 28.3472 19.3677C28.8521 18.7258 29.543 18.294 30.3401 18.1186C30.6196 18.0909 30.8964 18.0851 31.1772 18.0856C31.2925 18.0857 31.2925 18.0857 31.4102 18.0858C32.2797 18.1015 33.1251 18.253 33.8646 18.7354C33.5799 19.7126 32.7701 20.7112 31.8783 21.2095C31.2033 21.5625 30.6829 21.7485 29.9216 21.7478C29.8579 21.7479 29.7941 21.7479 29.7285 21.748C29.4171 21.7449 29.1295 21.735 28.8312 21.6432C27.756 21.3199 26.4617 21.6014 25.4529 22.0404C24.849 22.3678 24.414 22.775 23.9959 23.3173C24.0948 23.3032 24.1937 23.2891 24.2956 23.2746C24.7125 23.2227 25.1254 23.2119 25.5451 23.2082C25.624 23.2075 25.7028 23.2068 25.7841 23.2061C25.95 23.2048 26.116 23.2039 26.2819 23.2032C26.45 23.2022 26.618 23.2004 26.7861 23.1978C28.0985 23.1775 29.0755 23.2417 30.1071 24.1375C30.7502 24.792 31.4856 25.7181 31.4856 26.6656C30.2654 26.9952 28.9634 27.1685 27.7762 26.6371C27.0384 26.2111 26.5415 25.6265 26.1106 24.9034C25.9268 24.6098 25.789 24.3953 25.4939 24.1985C24.793 24.0877 24.2183 24.2307 23.6435 24.639C23.025 25.1828 22.7155 25.7084 22.6501 26.5266C22.6111 28.023 22.7384 29.8065 23.7405 30.9884C24.4024 31.6652 25.1399 31.7112 26.0494 31.8069C27.122 31.9393 27.872 32.3487 28.648 33.0935C28.8136 33.2476 28.9705 33.3697 29.1616 33.4889C29.2652 33.5571 29.2652 33.5571 29.3708 33.6266C29.3708 33.6848 29.3708 33.7429 29.3708 33.8028C28.5123 33.8642 27.9859 33.4752 27.2737 33.0336C26.9417 32.8419 26.647 32.8124 26.2704 32.784C26.1746 32.7766 26.0789 32.7693 25.9802 32.7616C25.9069 32.7563 25.8337 32.751 25.7582 32.7455C25.7966 32.7978 25.835 32.8502 25.8745 32.9041C26.1632 33.306 26.423 33.7044 26.6503 34.1443C27.0199 34.833 27.5385 35.0635 28.2254 35.3889C28.2254 35.418 28.2254 35.447 28.2254 35.477C27.5791 35.5265 27.0219 35.4754 26.4631 35.1245C26.168 34.8323 25.942 34.5049 25.7417 34.1419C25.4414 33.5987 25.0682 33.3808 24.5246 33.0979C24.4075 33.035 24.2905 32.9719 24.1735 32.9086C23.851 32.7348 23.5273 32.5634 23.2029 32.393C23.4342 33.468 24.004 33.9386 24.8767 34.5317C25.296 34.8243 25.5334 35.0988 25.7582 35.5651C25.7873 35.6233 25.8164 35.6814 25.8463 35.7413C25.8498 35.9175 25.8501 36.0938 25.8463 36.27C25.5276 36.1155 25.3477 35.9393 25.1359 35.6642C24.8041 35.2647 24.4302 35.1162 23.9498 34.9404C23.7316 34.8602 23.7316 34.8602 23.6435 34.7721C23.5258 35.3897 23.3705 36.2254 23.6414 36.8073C23.7657 36.9638 23.7657 36.9638 23.9959 37.1511C24.0632 37.2202 24.1304 37.2893 24.1997 37.3604C24.2488 37.4077 24.2978 37.4549 24.3484 37.5036C23.8151 37.4799 23.4456 37.4235 23.0267 37.063C22.6428 36.5651 22.5833 36.2456 22.5829 35.6271C22.5723 34.6244 22.3303 33.69 21.6382 32.9272C21.584 32.8809 21.584 32.8809 21.5287 32.8336C21.6079 33.4112 21.6976 33.977 21.8482 34.5408C22.0247 35.2282 22.0307 35.8059 21.705 36.4462C21.5088 36.7131 21.302 36.9642 21.0847 37.2141C20.829 37.5122 20.8057 37.701 20.7743 38.0874C20.7669 38.1757 20.7595 38.2641 20.7519 38.3551C20.7466 38.4231 20.7412 38.491 20.7357 38.561C20.4089 38.2552 20.2832 38.0339 20.2621 37.5862C20.2635 37.1541 20.416 36.8667 20.6394 36.5037C20.9016 35.8679 20.6736 35.2965 20.4438 34.6895C20.3891 34.54 20.3343 34.3905 20.2797 34.241C20.2529 34.1688 20.2261 34.0965 20.1986 34.0221C20.0769 33.687 19.9651 33.3487 19.8546 33.0098C19.8153 33.096 19.8153 33.096 19.7752 33.1839C19.7128 33.3209 19.6503 33.4579 19.5878 33.5949C19.4526 33.9231 19.4032 34.2123 19.3954 34.5666C19.3929 34.6454 19.3904 34.7241 19.3879 34.8053C19.3833 34.9687 19.3794 35.132 19.3762 35.2954C19.3486 36.0987 19.1994 36.749 18.621 37.3274C18.3897 37.4981 18.3897 37.4981 18.1804 37.5917C18.0932 37.5626 18.006 37.5336 17.9161 37.5036C17.9469 37.4558 17.9777 37.408 18.0094 37.3587C18.0495 37.2957 18.0896 37.2326 18.1309 37.1677C18.1707 37.1053 18.2106 37.043 18.2517 36.9787C18.6319 36.3267 18.4117 35.5554 18.2685 34.8602C17.5621 35.1456 17.1167 35.4072 16.7352 36.0786C16.5656 36.3092 16.4237 36.364 16.1538 36.4462C16.339 35.5918 16.5214 34.9163 17.2112 34.3315C17.4341 34.1911 17.6596 34.0579 17.8892 33.9288C18.2084 33.7308 18.3289 33.6303 18.4403 33.2621C18.4618 33.1589 18.4832 33.0556 18.5054 32.9492C18.5275 32.8453 18.5496 32.7414 18.5725 32.6343C18.5885 32.5547 18.6045 32.4751 18.621 32.393C17.5525 32.9649 16.7274 33.4518 16.0406 34.475C15.6735 34.9826 15.2824 35.2809 14.6559 35.3889C14.3907 35.4008 14.128 35.3997 13.8629 35.3889C14.139 35.0747 14.4902 34.9291 14.8593 34.7452C15.3663 34.4259 15.5576 33.9552 15.7793 33.4228C15.8072 33.3576 15.835 33.2923 15.8637 33.2251C15.9316 33.0655 15.9988 32.9055 16.0657 32.7455C15.2578 32.8189 14.7054 32.9939 14.0391 33.4504C13.4819 33.8146 13.124 33.9442 12.4531 33.8909C12.424 33.8328 12.3949 33.7746 12.3649 33.7147C12.4641 33.6602 12.4641 33.6602 12.5653 33.6046C13.0301 33.3423 13.4641 33.0777 13.8739 32.7345C14.611 32.1333 15.261 31.9205 16.1875 31.7838C17.0097 31.6597 17.7564 31.4086 18.3567 30.807C19.1868 29.6806 19.5075 27.6802 19.3259 26.3132C19.1264 25.5385 18.7933 24.812 18.0923 24.3747C17.6338 24.1655 17.1885 24.0435 16.6825 24.1103C16.2491 24.3493 16.0455 24.5897 15.8069 25.019C15.2646 25.9488 14.62 26.496 13.5875 26.8253C12.5745 27.0747 11.4149 26.9951 10.4264 26.6656C10.8156 25.392 11.4676 24.3026 12.6293 23.5817C13.2442 23.2779 13.7668 23.1787 14.4483 23.1917C14.5341 23.192 14.6198 23.1923 14.7081 23.1926C14.9789 23.1939 15.2497 23.1978 15.5205 23.2017C15.7038 23.2027 15.8871 23.2036 16.0704 23.2043C16.2456 23.2054 16.4209 23.2068 16.5961 23.2082C16.6778 23.2089 16.7595 23.2095 16.8437 23.2102C17.2114 23.2156 17.5576 23.2246 17.9161 23.3173C17.4697 22.5137 16.7541 22.0149 15.8895 21.7313C15.0297 21.5242 14.0295 21.4083 13.1666 21.6421C12.1629 21.9103 11.1547 21.7959 10.2502 21.2907C10.1799 21.2524 10.1096 21.2142 10.0372 21.1747C9.11292 20.6164 8.54674 19.7581 8.04736 18.8235C8.42383 18.3409 9.23475 18.2217 9.80963 18.1186C11.0534 17.9847 12.1337 18.0666 13.1481 18.8418C13.5406 19.175 13.8706 19.5721 14.2076 19.9601C14.8534 20.6749 15.518 20.8653 16.4402 21.0484C17.2557 21.2238 17.8644 21.4958 18.5329 21.9956C18.4023 20.9246 17.5228 20.111 16.8286 19.3386C16.6887 19.1829 16.5501 19.026 16.4116 18.869C16.3276 18.7748 16.2435 18.6807 16.1593 18.5867C16.0858 18.5046 16.0124 18.4225 15.9366 18.3379C15.4974 17.9067 15.0924 17.7171 14.4962 17.5955C13.3786 17.3382 12.6146 16.8213 11.985 15.8442C11.5009 15.0606 11.4459 14.1969 11.4673 13.2999C11.4685 13.2034 11.4697 13.1069 11.4709 13.0075C11.474 12.7727 11.4783 12.5379 11.4838 12.3031Z" fill="#265A46"/>
<path d="M32.1106 5.5789C32.3337 5.77911 32.5524 5.98368 32.7692 6.19075C32.8907 6.30655 33.0136 6.42084 33.1366 6.53507C34.1667 7.52039 35.0146 8.68488 35.715 9.92368C35.7463 9.97808 35.7776 10.0325 35.8098 10.0885C36.694 11.6363 37.3031 13.287 37.6535 15.0343C37.6679 15.1055 37.6823 15.1767 37.6972 15.2502C38.1269 17.4902 38.0925 19.9552 37.5654 22.1715C37.5436 22.2629 37.5219 22.3544 37.4995 22.4487C37.1984 23.6767 36.8095 24.8297 36.2437 25.9603C36.202 26.0457 36.202 26.0457 36.1594 26.1328C34.7418 29.018 32.4497 31.2344 29.8114 33.0094C29.5206 32.8349 29.2298 32.6605 28.9302 32.4807C29.1912 32.2659 29.4585 32.0635 29.7336 31.8674C30.6267 31.2284 31.4525 30.5593 32.2356 29.7891C32.3433 29.6839 32.4536 29.5814 32.5646 29.4797C35.0723 27.1388 36.6499 23.3539 36.8605 19.9686C37.0207 15.1651 35.8282 10.9675 32.5429 7.36836C32.4771 7.29624 32.4114 7.22411 32.3436 7.1498C31.0642 5.81366 29.4545 4.79168 27.7848 4.02005C27.6844 3.97303 27.5839 3.926 27.4805 3.87755C25.9855 3.20655 24.4667 2.84678 22.8504 2.61023C22.6822 2.58451 22.6822 2.58451 22.5107 2.55826C18.6685 2.10187 14.4736 3.24461 11.4067 5.60609C11.2255 5.75142 11.0456 5.89831 10.867 6.04666C10.8177 6.08714 10.7684 6.12762 10.7176 6.16932C7.79445 8.57222 5.72136 12.0412 5.22769 15.8273C5.21466 15.9153 5.21466 15.9153 5.20136 16.0052C4.59993 20.0762 5.51834 24.3943 7.94991 27.7426C8.04175 27.8635 8.04175 27.8635 8.13543 27.9869C8.19211 28.0621 8.24879 28.1373 8.30719 28.2148C9.58323 29.8558 11.08 31.1542 12.8055 32.3045C12.6735 32.6405 12.4706 32.7926 12.1887 33.0094C11.086 32.2919 10.068 31.5303 9.10468 30.6303C9.02858 30.56 8.95248 30.4897 8.87407 30.4173C7.84149 29.4281 6.98552 28.262 6.28505 27.0177C6.24852 26.9547 6.21199 26.8917 6.17435 26.8268C5.14412 25.0377 4.46142 23.0725 4.17033 21.026C4.16156 20.9653 4.15279 20.9046 4.14376 20.8421C3.89032 18.7555 3.9426 16.4577 4.43467 14.4175C4.4507 14.3472 4.46673 14.2769 4.48324 14.2045C5.4474 10.0463 8.22905 6.36647 11.7953 4.08078C13.7951 2.83772 15.9493 2.03637 18.2685 1.64099C18.3573 1.6255 18.3573 1.6255 18.448 1.60971C23.2612 0.808887 28.4642 2.36864 32.1106 5.5789Z" fill="#265A46"/>
<path d="M19.928 6.99227C20.2685 7.19351 20.4707 7.45597 20.6477 7.81008C20.7386 8.80533 20.7386 8.80533 20.4825 9.18133C20.3898 9.28763 20.3898 9.28763 20.2953 9.39613C20.2371 9.48333 20.179 9.57063 20.1191 9.66043C20.6822 9.64643 20.9818 9.34293 21.3526 8.95553C21.5166 8.75393 21.6733 8.54821 21.829 8.34014C22.1209 7.97094 22.4943 7.67247 22.9679 7.60425C23.4862 7.59609 23.8615 7.63919 24.2604 7.98631C24.8484 8.60063 25.0624 9.24473 25.0975 10.0845C25.0806 10.8273 24.8483 11.4791 24.4146 12.0836C24.0389 12.4251 23.6653 12.6386 23.1507 12.6704C22.5568 12.6337 22.1888 12.4476 21.7767 12.012C21.51 11.6166 21.3526 11.2858 21.3526 10.8059C21.5414 10.8981 21.7254 10.9938 21.9075 11.0988C22.421 11.3842 22.7186 11.4968 23.2911 11.3346C23.7555 11.0846 24.0913 10.7845 24.2604 10.2772C24.3059 9.72023 24.3129 9.26093 23.996 8.77933C23.8947 8.65933 23.8947 8.65933 23.6216 8.66363C23.2276 8.69653 23.1363 8.77943 22.8506 9.04363C22.7118 9.21803 22.5779 9.39633 22.4486 9.57783C22.1518 9.99393 21.9328 10.2894 21.4408 10.4535C21.3179 10.4593 21.1948 10.461 21.0718 10.459C20.9609 10.4571 20.8501 10.4553 20.7358 10.4535C20.7549 10.5025 20.774 10.5516 20.7937 10.6021C21.0394 11.2755 21.1012 11.8194 20.816 12.4959C20.5913 12.9454 20.3314 13.1995 19.8547 13.3612C19.0407 13.482 18.4145 13.294 17.74 12.8325C17.0906 12.2782 16.6861 11.5211 16.4183 10.7178C16.4148 10.5122 16.4144 10.3066 16.4183 10.101C16.4764 10.101 16.5346 10.101 16.5945 10.101C16.694 10.2609 16.7864 10.4252 16.8754 10.5911C17.3079 11.3483 17.7617 11.8782 18.6211 12.1276C19.1183 12.2088 19.5114 12.1049 19.9428 11.8633C20.1132 11.6044 20.1405 11.4197 20.108 11.1143C20.1024 11.048 20.0967 10.9816 20.0908 10.9133C20.0085 10.6444 19.9039 10.5327 19.6785 10.3653C19.4102 10.3229 19.4102 10.3229 19.1278 10.3433C18.9606 10.3506 18.7934 10.3579 18.6211 10.3653C18.5339 10.0164 18.4467 9.66753 18.3568 9.30803C18.4458 9.28253 18.5349 9.25713 18.6266 9.23093C18.6827 9.21453 18.7389 9.19823 18.7967 9.18133C18.9628 9.13483 19.1306 9.09453 19.2985 9.05473C19.6103 8.94873 19.7522 8.87003 19.9428 8.60313C20.0016 8.379 20.0016 8.379 19.9428 8.16253C19.7878 7.96706 19.659 7.91047 19.4152 7.86687C18.8665 7.83181 18.5174 8.00246 18.0924 8.33876C18.0343 8.39691 17.9761 8.45507 17.9162 8.51499C17.7469 8.50707 17.7469 8.50707 17.5638 8.42687C17.4137 8.24479 17.4137 8.24479 17.2774 8.02485C17.2315 7.95205 17.1856 7.87924 17.1383 7.80423C17.1043 7.748 17.0702 7.69178 17.0351 7.63385C17.7345 6.64106 18.8511 6.51287 19.928 6.99227Z" fill="#FC5D14"/>
<path d="M19.5903 5.60547C19.6485 5.60547 19.7066 5.60547 19.7666 5.60547C19.8642 5.71394 19.9571 5.82672 20.0474 5.9414C20.3493 6.29321 20.5501 6.45627 21.0001 6.57472C21.6959 6.57472 22.1857 6.28133 22.6743 5.79821C22.7325 5.73461 22.7906 5.671 22.8505 5.60547C23.0831 5.86716 23.3158 6.12886 23.5554 6.39849C23.3151 6.87921 23.0023 7.14482 22.5146 7.35122C21.8881 7.55845 21.3437 7.51369 20.754 7.22042C20.1823 6.87637 19.7885 6.51402 19.5903 5.86981C19.5903 5.78257 19.5903 5.69534 19.5903 5.60547Z" fill="#FC5B14"/>
<path d="M25.9342 33.3633C26.0915 33.3726 26.0915 33.3726 26.2867 33.4514C26.4405 33.6982 26.4405 33.6982 26.5896 34.0076C26.8855 34.6207 27.2041 34.8998 27.8122 35.1916C27.89 35.2293 27.9678 35.267 28.0479 35.3059C28.1064 35.3336 28.1649 35.3613 28.2252 35.3899C28.2252 35.419 28.2252 35.448 28.2252 35.478C27.5783 35.5275 27.0227 35.4757 26.4629 35.1255C25.9781 34.6542 25.6499 34.0347 25.3174 33.4514C25.372 33.4805 25.4265 33.5095 25.4827 33.5395C25.662 33.6401 25.662 33.6401 25.8461 33.6276C25.8752 33.5404 25.9043 33.4531 25.9342 33.3633Z" fill="#265A46"/>
<path d="M15.9774 31.9516C15.9774 31.9806 15.9774 32.0097 15.9774 32.0397C15.9031 32.0536 15.8288 32.0676 15.7523 32.082C15.6075 32.1128 15.6075 32.1128 15.4597 32.1443C15.3156 32.1734 15.3156 32.1734 15.1685 32.2032C14.9007 32.2808 14.9007 32.2808 14.7982 32.5343C14.7802 32.6037 14.7623 32.6731 14.7438 32.7446C14.8601 32.7737 14.9764 32.8027 15.0963 32.8327C15.0492 32.8584 15.0022 32.884 14.9538 32.9105C14.4976 33.1615 14.0492 33.4229 13.6042 33.6932C13.3218 33.8619 13.1666 33.9002 12.8384 33.8956C12.7303 33.8944 12.7303 33.8944 12.6201 33.8931C12.5649 33.8921 12.5097 33.8911 12.4529 33.89C12.4238 33.8319 12.3947 33.7737 12.3647 33.7138C12.4309 33.6775 12.497 33.6411 12.5651 33.6037C13.03 33.3414 13.4639 33.0768 13.8737 32.7336C14.5434 32.1828 15.1001 31.8808 15.9774 31.9516Z" fill="#265A46"/>
<path d="M25.4059 15.1211C25.2761 15.5014 25.0786 15.7807 24.8387 16.1013C24.1763 17.0317 24.1246 17.9756 24.0842 19.0862C24.0551 19.0862 24.0261 19.0862 23.9961 19.0862C23.967 18.5919 23.9379 18.0975 23.908 17.5882C23.8208 17.5882 23.7335 17.5882 23.6436 17.5882C23.6862 16.6946 23.9679 16.1658 24.6294 15.5616C25.1396 15.1211 25.1396 15.1211 25.4059 15.1211Z" fill="#265A46"/>
<path d="M21.2644 4.72656C21.3225 4.72656 21.3807 4.72656 21.4406 4.72656C21.5928 4.88076 21.5928 4.88076 21.76 5.07901C21.8435 5.17715 21.8435 5.17715 21.9287 5.27727C21.9712 5.32815 22.0136 5.37904 22.0574 5.43147C21.9318 5.73563 21.7845 5.88097 21.5177 6.07029C21.4539 6.11618 21.39 6.16206 21.3243 6.20934C21.2754 6.24342 21.2266 6.27749 21.1763 6.3126C20.7973 6.14416 20.6301 5.93675 20.3833 5.60769C20.3833 5.54954 20.3833 5.49138 20.3833 5.43147C20.5536 5.28243 20.5536 5.28243 20.7743 5.11756C21.0289 4.93321 21.0289 4.93321 21.2644 4.72656Z" fill="#FC5712"/>
<path d="M27.5206 32.3047C27.8901 32.4272 28.1153 32.5993 28.3962 32.8664C28.6421 33.0954 28.8765 33.3106 29.1617 33.4887C29.2307 33.5342 29.2998 33.5796 29.3709 33.6264C29.3709 33.6846 29.3709 33.7427 29.3709 33.8026C28.5124 33.8639 27.986 33.475 27.2738 33.0334C26.9418 32.8417 26.6471 32.8122 26.2705 32.7838C26.1747 32.7764 26.079 32.769 25.9803 32.7614C25.907 32.7561 25.8338 32.7508 25.7583 32.7453C25.7583 32.7162 25.7583 32.6871 25.7583 32.6572C26.4907 32.6164 27.0535 32.6373 27.6968 33.0096C27.7549 32.8933 27.8131 32.777 27.873 32.6572C27.7567 32.5408 27.6404 32.4245 27.5206 32.3047Z" fill="#265A46"/>
<path d="M16.4183 10.1016C16.4764 10.1016 16.5346 10.1016 16.5945 10.1016C16.694 10.2615 16.7864 10.4258 16.8754 10.5917C17.3086 11.3517 17.7327 11.7772 18.533 12.1282C18.2687 12.2163 18.2687 12.2163 18.1072 12.144C18.0209 12.0871 18.0209 12.0871 17.9327 12.0291C17.8711 11.9885 17.8094 11.948 17.7458 11.9062C17.5788 11.7866 17.4222 11.6616 17.2664 11.5279C17.0627 11.3164 17.0627 11.3164 16.8588 11.3352C17.0782 11.5702 17.2672 11.7368 17.5638 11.8639C17.5347 12.0093 17.5056 12.1547 17.4756 12.3044C17.8361 12.6339 18.1689 12.8989 18.6211 13.0975C18.3568 13.1856 18.3568 13.1856 18.1823 13.1095C17.2913 12.5244 16.724 11.7417 16.4183 10.7184C16.3895 10.4966 16.3929 10.3249 16.4183 10.1016Z" fill="#FB4E10"/>
<path d="M16.5063 15.1211C17.1731 15.2461 17.6137 15.6126 18.0043 16.1619C18.0924 16.3547 18.0924 16.3547 18.0924 16.5309C18.0342 16.5309 17.9761 16.5309 17.9162 16.5309C17.9162 16.589 17.9162 16.6472 17.9162 16.7071C17.858 16.7071 17.7998 16.7071 17.7399 16.7071C17.769 16.8816 17.7981 17.056 17.828 17.2358C17.6797 17.0133 17.5754 16.8108 17.4646 16.5694C17.2457 16.1225 16.9651 15.7588 16.6451 15.3796C16.5063 15.2092 16.5063 15.2092 16.5063 15.1211Z" fill="#265A46"/>
<path d="M15.5369 34.0664C15.5951 34.1827 15.6532 34.299 15.7132 34.4188C15.6259 34.4479 15.5387 34.477 15.4488 34.5069C15.536 34.536 15.6233 34.5651 15.7132 34.595C15.7713 34.566 15.8295 34.5369 15.8894 34.5069C15.7567 34.8448 15.5728 35.0117 15.2726 35.2118C14.7963 35.395 14.3647 35.4086 13.8628 35.3881C14.0786 35.1426 14.3097 35.0206 14.6007 34.8759C15.0194 34.6546 15.2692 34.4542 15.5369 34.0664Z" fill="#265A46"/>
<path d="M31.3973 19.6152C31.3263 19.6406 31.2552 19.6659 31.182 19.6919C30.9153 19.787 30.6486 19.8821 30.382 19.9772C30.2671 20.0181 30.1523 20.0591 30.0374 20.1C29.8712 20.1592 29.7049 20.2185 29.5387 20.2778C29.3802 20.3341 29.3802 20.3341 29.2186 20.3916C28.9817 20.4777 28.7481 20.5686 28.5144 20.6626C28.2253 20.7607 28.2253 20.7607 27.9609 20.6726C28.4393 20.3455 28.9012 20.1241 29.4533 19.9512C29.5521 19.9185 29.5521 19.9185 29.6528 19.8853C30.9362 19.47 30.9362 19.47 31.3973 19.6152Z" fill="#EBF2F7"/>
<path d="M10.9551 19.6172C12.0405 19.6516 13.1583 20.0374 14.0391 20.6745C13.6997 20.8048 13.4963 20.7156 13.1665 20.5847C13.0663 20.5454 12.9661 20.5062 12.8628 20.4658C12.7063 20.4028 12.7063 20.4028 12.5466 20.3386C12.4427 20.2976 12.3387 20.2567 12.2315 20.2145C11.9525 20.1044 11.674 19.9933 11.3957 19.8815C11.2488 19.8227 11.102 19.764 10.9551 19.7053C10.9551 19.6762 10.9551 19.6471 10.9551 19.6172Z" fill="#E6EFF7"/>
<path d="M13.2461 14.418C14.0882 15.1021 14.7956 15.9036 15.2728 16.8851C15.2437 16.9724 15.2146 17.0596 15.1846 17.1495C14.8898 16.7685 14.5963 16.3865 14.3035 16.004C14.2555 15.9414 14.2075 15.8787 14.158 15.8142C14.0114 15.6227 13.8655 15.4307 13.7198 15.2385C13.6728 15.1773 13.6259 15.1161 13.5775 15.053C13.2461 14.6144 13.2461 14.6144 13.2461 14.418Z" fill="#EDF4F9"/>
<path d="M28.5777 14.5039C28.5777 14.8194 28.5125 14.888 28.3264 15.1355C28.2732 15.207 28.2199 15.2785 28.165 15.3521C28.0803 15.4638 28.0803 15.4638 27.9939 15.5778C27.9395 15.6505 27.8851 15.7233 27.8291 15.7982C27.7207 15.943 27.6119 16.0874 27.5027 16.2315C27.3977 16.3712 27.294 16.5119 27.1917 16.6536C27.145 16.718 27.0983 16.7825 27.0502 16.8489C27.009 16.9065 26.9678 16.9641 26.9254 17.0235C26.8891 17.0643 26.8528 17.1052 26.8154 17.1473C26.7573 17.1473 26.6991 17.1473 26.6392 17.1473C27.0346 16.0896 27.7929 15.2887 28.5777 14.5039Z" fill="#EBF2F8"/>
<path d="M15.6253 24.0205C15.443 24.2209 15.2905 24.3323 15.0385 24.4301C14.9762 24.4549 14.9139 24.4796 14.8497 24.5051C14.784 24.5306 14.7183 24.556 14.6506 24.5822C14.1308 24.7884 13.6301 25.0067 13.1392 25.2761C13.0873 25.2979 13.0354 25.3198 12.9819 25.3422C12.9238 25.3131 12.8656 25.2841 12.8057 25.2541C13.6149 24.6367 14.5721 23.9913 15.6253 24.0205Z" fill="#F2F8FB"/>
<path d="M20.9121 15.4766C20.9703 15.4766 21.0285 15.4766 21.0884 15.4766C21.1674 16.0161 21.1899 16.5398 21.1875 17.0847C21.1878 17.1626 21.1882 17.2405 21.1885 17.3208C21.1884 17.4336 21.1884 17.4336 21.1882 17.5487C21.1881 17.6162 21.188 17.6837 21.1879 17.7532C21.1764 17.9444 21.1409 18.1124 21.0884 18.2962C21.0302 18.2962 20.9721 18.2962 20.9121 18.2962C20.9121 17.3658 20.9121 16.4353 20.9121 15.4766Z" fill="#ECF3F7"/>
<path d="M26.4629 24.0234C27.5523 24.0863 28.4164 24.6382 29.2825 25.257C29.1953 25.3006 29.1953 25.3006 29.1063 25.3451C28.9006 25.2704 28.9006 25.2704 28.6451 25.151C28.5526 25.1082 28.4602 25.0654 28.3649 25.0212C28.2679 24.9755 28.1709 24.9297 28.071 24.8825C27.9753 24.8381 27.8797 24.7937 27.7812 24.748C27.3385 24.5418 26.899 24.3311 26.4629 24.1115C26.4629 24.0825 26.4629 24.0534 26.4629 24.0234Z" fill="#EDF3F9"/>
<path d="M14.4797 16.2695C14.7753 16.5418 14.9901 16.757 15.0965 17.1507C15.0674 17.2088 15.0383 17.267 15.0084 17.3269C15.0665 17.3269 15.1247 17.3269 15.1846 17.3269C15.2137 17.4141 15.2427 17.5014 15.2727 17.5912C15.3943 17.6713 15.5162 17.7509 15.6399 17.8277C15.964 18.0605 16.2313 18.361 16.5063 18.6486C16.4772 18.7068 16.4481 18.7649 16.4182 18.8248C16.3627 18.7643 16.3073 18.7038 16.2502 18.6414C15.6631 18.0234 15.2419 17.7241 14.3916 17.5912C14.4206 17.5331 14.4497 17.4749 14.4797 17.415C14.5378 17.415 14.596 17.415 14.6559 17.415C14.7775 17.1754 14.7775 17.1754 14.8321 16.8863C14.6749 16.642 14.6749 16.642 14.4797 16.4458C14.4797 16.3876 14.4797 16.3295 14.4797 16.2695Z" fill="#265A46"/>
<path d="M14.0393 32.5703C14.0974 32.5994 14.1556 32.6285 14.2155 32.6585C14.1582 32.8059 14.0992 32.9526 14.0393 33.099C14.0175 33.1626 13.9957 33.2262 13.9732 33.2918C13.8091 33.5297 13.6059 33.5569 13.3344 33.6277C13.3344 33.6568 13.3344 33.6859 13.3344 33.7158C13.1599 33.7158 12.9854 33.7158 12.8057 33.7158C12.8639 33.6867 12.922 33.6577 12.9819 33.6277C12.9819 33.5405 12.9819 33.4532 12.9819 33.3634C13.1543 33.2403 13.3314 33.1238 13.5106 33.0109C13.6912 32.8686 13.8647 32.72 14.0393 32.5703Z" fill="#265A46"/>
<path d="M25.4057 15.1211C25.2773 15.485 25.1222 15.7907 24.8771 16.0903C24.5907 16.1674 24.5907 16.1674 24.3484 16.1784C24.3193 16.0912 24.2902 16.004 24.2603 15.9141C24.4177 15.7814 24.5757 15.6493 24.7339 15.5176C24.8218 15.444 24.9097 15.3704 25.0003 15.2945C25.2295 15.1211 25.2295 15.1211 25.4057 15.1211Z" fill="#265A46"/>
<path d="M26.0225 34.2422C26.1933 34.2697 26.1933 34.2697 26.375 34.3303C26.4041 34.4175 26.4331 34.5048 26.4631 34.5947C26.514 34.6074 26.5649 34.6201 26.6173 34.6332C26.8156 34.6828 26.8156 34.6828 27.0193 34.848C27.2953 35.0662 27.5467 35.1716 27.8729 35.2996C27.4459 35.4419 27.1264 35.296 26.7274 35.1233C26.3524 34.8869 26.1973 34.647 26.0225 34.2422Z" fill="#265A46"/>
<path d="M18.9734 36.5352C19.0315 36.5642 19.0897 36.5933 19.1496 36.6233C18.5961 37.4239 18.5961 37.4239 18.1803 37.5925C18.0931 37.5634 18.0059 37.5344 17.916 37.5044C18.219 37.0269 18.4551 36.7699 18.9734 36.5352Z" fill="#265A46"/>
<path d="M21.3525 10.8047C21.6053 10.9265 21.8424 11.0621 22.0794 11.2122C22.1417 11.2515 22.2039 11.2908 22.268 11.3313C22.3148 11.3611 22.3616 11.3908 22.4099 11.4215C22.3226 11.4506 22.2354 11.4797 22.1455 11.5096C21.8647 11.3389 21.8647 11.3389 21.6168 11.1572C21.7873 11.7159 21.9376 11.961 22.4099 12.3026C22.468 12.3608 22.5262 12.4189 22.5861 12.4789C22.3449 12.4718 22.1902 12.4301 22.0078 12.2692C21.6131 11.8281 21.3525 11.4117 21.3525 10.8047Z" fill="#FA400B"/>
<path d="M24.0838 16.3555C24.1711 16.3846 24.2583 16.4137 24.3482 16.4437C24.2628 16.9249 24.2628 16.9249 24.172 17.1486C23.9407 17.2807 23.9407 17.2807 23.7314 17.3248C23.6433 17.0605 23.6433 17.0605 23.7589 16.741C23.9076 16.4437 23.9076 16.4437 24.0838 16.3555Z" fill="#265A46"/>
<path d="M20.5593 36.7109C20.5883 36.769 20.6174 36.8272 20.6474 36.8871C20.6065 36.9607 20.6065 36.9607 20.5648 37.0358C20.4371 37.3136 20.4595 37.5545 20.4711 37.8564C20.4948 37.8037 20.5184 37.751 20.5427 37.6967C20.6474 37.5039 20.6474 37.5039 20.9117 37.2396C20.8536 37.6757 20.7954 38.1119 20.7355 38.5613C20.3697 38.1955 20.2829 38.0474 20.2729 37.559C20.2752 37.2071 20.3393 36.9951 20.5593 36.7109Z" fill="#265A46"/>
<path d="M19.5903 5.60547C19.6485 5.60547 19.7066 5.60547 19.7666 5.60547C19.9187 5.75967 19.9187 5.75967 20.086 5.95792C20.1416 6.02334 20.1973 6.08877 20.2546 6.15618C20.2971 6.20706 20.3396 6.25795 20.3833 6.31037C20.119 6.31037 20.119 6.31037 19.9428 6.22226C20.2407 6.58672 20.5301 6.91071 20.912 7.19151C20.4541 7.11161 20.1635 6.81839 19.8547 6.4866C19.6774 6.19986 19.5903 5.94682 19.5903 5.60547Z" fill="#FB4411"/>
<path d="M15.9778 15.8281C16.0068 15.8281 16.0359 15.8281 16.0659 15.8281C16.0712 15.9291 16.0765 16.03 16.082 16.1341C16.0895 16.2689 16.0969 16.4037 16.1044 16.5385C16.1079 16.6048 16.1113 16.671 16.1149 16.7393C16.1378 17.1451 16.1786 17.5413 16.2421 17.9428C16.0676 18.03 16.0676 18.03 15.8896 18.119C15.8315 18.0027 15.7733 17.8864 15.7134 17.7666C15.7716 17.7666 15.8297 17.7666 15.8896 17.7666C15.9187 17.1269 15.9478 16.4872 15.9778 15.8281Z" fill="#265A46"/>
<path d="M13.9508 33.2734C14.0089 33.3025 14.0671 33.3316 14.127 33.3616C14.0133 33.4333 13.8994 33.5048 13.7856 33.5763C13.7222 33.6162 13.6588 33.6561 13.5935 33.6972C13.3171 33.8664 13.1615 33.9004 12.8384 33.8958C12.7303 33.8946 12.7303 33.8946 12.6201 33.8933C12.5373 33.8918 12.5373 33.8918 12.4529 33.8902C12.4238 33.8321 12.3947 33.7739 12.3647 33.714C12.5683 33.6268 12.7718 33.5396 12.9815 33.4497C12.9815 33.5078 12.9815 33.566 12.9815 33.6259C13.0688 33.5968 13.156 33.5677 13.2459 33.5378C13.3513 33.5087 13.4567 33.4796 13.5653 33.4497C13.846 33.3922 13.846 33.3922 13.9508 33.2734Z" fill="#265A46"/>
<path d="M16.5063 15.1211C17.0813 15.2289 17.4239 15.4969 17.828 15.9141C17.9153 16.0449 17.9153 16.0449 18.0043 16.1784C17.9752 16.2657 17.9461 16.3529 17.9162 16.4428C17.8821 16.3939 17.848 16.3451 17.8129 16.2948C17.767 16.2309 17.7211 16.1671 17.6738 16.1013C17.6064 16.0063 17.6064 16.0063 17.5375 15.9093C17.3809 15.7303 17.2529 15.6516 17.035 15.5616C17.035 15.6489 17.035 15.7361 17.035 15.826C16.9466 15.7252 16.8586 15.6242 16.7707 15.5231C16.7216 15.4669 16.6725 15.4106 16.622 15.3527C16.5063 15.2092 16.5063 15.2092 16.5063 15.1211Z" fill="#265A46"/>
<path d="M28.7541 20.0586C28.8413 20.0877 28.9285 20.1168 29.0184 20.1467C28.6985 20.3212 28.3787 20.4957 28.0491 20.6754C28.1364 20.7336 28.2236 20.7917 28.3135 20.8516C28.1681 20.8516 28.0227 20.8516 27.8729 20.8516C27.8438 20.7353 27.8148 20.619 27.7848 20.4992C27.6976 20.4992 27.6103 20.4992 27.5205 20.4992C27.5786 20.3829 27.6368 20.2666 27.6967 20.1467C27.773 20.1813 27.8493 20.2158 27.928 20.2514C28.3042 20.3419 28.4249 20.2415 28.7541 20.0586Z" fill="#265A46"/>
<path d="M31.3976 19.6171C30.6125 19.8788 30.6125 19.8788 29.8115 20.1457C29.8115 20.0585 29.8115 19.9713 29.8115 19.8814C30.9196 19.4976 30.9196 19.4976 31.3976 19.6171Z" fill="#E0EBF4"/>
<path d="M18.2686 17.2383C18.3567 17.5026 18.3567 17.5026 18.2686 17.767C18.2105 17.767 18.1523 17.767 18.0924 17.767C18.0633 18.1741 18.0342 18.5811 18.0043 19.0006C17.9752 19.0006 17.9461 19.0006 17.9162 19.0006C17.8871 18.4481 17.858 17.8956 17.8281 17.3264C17.9153 17.3264 18.0025 17.3264 18.0924 17.3264C18.1506 17.2973 18.2087 17.2683 18.2686 17.2383Z" fill="#265A46"/>
<path d="M16.8589 15.3867C17.3252 15.5101 17.544 15.8145 17.8282 16.1797C17.7409 16.2379 17.6537 16.296 17.5638 16.356C17.5348 16.2687 17.5057 16.1815 17.4757 16.0916C17.4194 16.0807 17.363 16.0698 17.305 16.0586C17.245 16.0404 17.1851 16.0222 17.1233 16.0035C17.0186 15.7887 17.0186 15.7887 16.947 15.5629C16.918 15.5048 16.8889 15.4466 16.8589 15.3867Z" fill="#265A46"/>
<path d="M25.1416 34.9492C25.5325 35.2592 25.628 35.6324 25.7584 36.0947C25.2522 35.7217 25.2522 35.7217 25.1416 35.3898C25.1306 35.1475 25.1306 35.1475 25.1416 34.9492Z" fill="#265A46"/>
<path d="M23.2031 19.8789C23.2322 19.9371 23.2613 19.9952 23.2912 20.0551C23.1904 20.2496 23.1904 20.2496 23.0434 20.4792C22.8943 20.7133 22.7693 20.9166 22.6789 21.1796C22.5863 21.3768 22.5863 21.3768 22.3991 21.4484C22.3446 21.4539 22.29 21.4593 22.2339 21.4649C22.8769 20.3486 22.8769 20.3486 23.2031 19.8789Z" fill="#265A46"/>
<path d="M10.7788 19.4414C11.0986 19.4414 11.4185 19.4414 11.748 19.4414C11.748 19.4996 11.748 19.5577 11.748 19.6177C11.8032 19.6283 11.8584 19.639 11.9153 19.65C11.9873 19.6648 12.0593 19.6795 12.1335 19.6948C12.2051 19.7091 12.2766 19.7234 12.3504 19.7381C12.5411 19.7939 12.5411 19.7939 12.7173 19.9701C12.0646 19.8474 11.4219 19.6953 10.7788 19.5295C10.7788 19.5005 10.7788 19.4714 10.7788 19.4414Z" fill="#265A46"/>
<path d="M15.1844 34.6836C15.2426 34.7126 15.3007 34.7417 15.3607 34.7717C15.3166 34.9424 15.3166 34.9424 15.1844 35.1241C14.9468 35.1847 14.7261 35.1963 14.4795 35.2122C14.4795 35.125 14.4795 35.0378 14.4795 34.9479C14.7132 34.8532 14.9451 34.7633 15.1844 34.6836Z" fill="#265A46"/>
<path d="M9.19284 18.4711C8.90206 18.5874 8.61129 18.7037 8.3117 18.8235C8.36986 19.0271 8.42801 19.2306 8.48793 19.4403C8.24788 19.233 8.15185 19.0328 8.04736 18.7354C8.17157 18.6736 8.29655 18.6133 8.42184 18.5537C8.49136 18.5199 8.56087 18.4862 8.63249 18.4515C8.84038 18.383 8.84038 18.383 9.19284 18.4711Z" fill="#265A46"/>
<path d="M28.0493 33.2746C28.3301 33.247 28.3301 33.247 28.666 33.2746C28.9249 33.4948 28.9249 33.4948 29.1066 33.7151C28.9084 33.7757 28.9084 33.7757 28.666 33.8032C28.4256 33.6618 28.2411 33.476 28.0493 33.2746Z" fill="#265A46"/>
<path d="M18.6074 9.21094C18.7881 9.21374 18.9688 9.21664 19.1495 9.21954C19.0913 9.27764 19.0332 9.33584 18.9732 9.39574C18.8279 9.39574 18.6825 9.39574 18.5327 9.39574C18.6199 9.71564 18.7071 10.0354 18.797 10.3649C18.7389 10.3649 18.6807 10.3649 18.6208 10.3649C18.5743 10.1907 18.5285 10.0163 18.4831 9.84184C18.4448 9.69614 18.4448 9.69614 18.4057 9.54754C18.3894 9.46834 18.3732 9.38924 18.3564 9.30764C18.4446 9.21954 18.4446 9.21954 18.6074 9.21094Z" fill="#FB3E05"/>
<path d="M25.4058 15.1211C25.2902 15.4679 25.1486 15.6698 24.8771 15.9141C24.8771 15.8269 24.8771 15.7396 24.8771 15.6497C24.7899 15.6497 24.7027 15.6497 24.6128 15.6497C24.7114 15.5611 24.8107 15.4731 24.9102 15.3854C24.993 15.3118 24.993 15.3118 25.0774 15.2367C25.2296 15.1211 25.2296 15.1211 25.4058 15.1211Z" fill="#265A46"/>
<path d="M7.16634 8.69141C7.22449 8.72051 7.28265 8.74951 7.34257 8.77951C7.28986 8.84491 7.23716 8.91031 7.18286 8.97781C7.06698 9.12341 6.95395 9.27151 6.84693 9.42381C6.78695 9.49741 6.78695 9.49741 6.72577 9.57251C6.66762 9.57251 6.60946 9.57251 6.54954 9.57251C6.52047 9.63071 6.49139 9.68881 6.46143 9.74871C6.51577 9.39561 6.69229 9.15131 6.902 8.86761C6.98923 8.80951 7.07646 8.75131 7.16634 8.69141Z" fill="#265A46"/>
<path d="M25.1412 18.1172C25.2284 18.1463 25.3156 18.1754 25.4055 18.2053C25.1356 18.6173 24.778 18.7848 24.3481 18.9984C24.4306 18.901 24.5133 18.8037 24.596 18.7065C24.642 18.6523 24.688 18.5981 24.7354 18.5423C24.8655 18.3944 25.0002 18.2548 25.1412 18.1172Z" fill="#265A46"/>
<path d="M16.4182 10.1016C16.4764 10.1016 16.5345 10.1016 16.5945 10.1016C16.8784 10.5663 16.8784 10.5663 16.9469 10.7184C16.9178 10.7766 16.8888 10.8347 16.8588 10.8946C16.7716 10.8946 16.6843 10.8946 16.5945 10.8946C16.4182 10.7184 16.4182 10.7184 16.4072 10.399C16.4109 10.3009 16.4145 10.2027 16.4182 10.1016Z" fill="#FB3D08"/>
<path d="M23.5552 17.4141C23.7733 17.4577 23.7733 17.4577 23.9957 17.5022C23.9957 17.7349 23.9957 17.9675 23.9957 18.2071C23.825 18.108 23.825 18.108 23.6433 17.9428C23.5772 17.6619 23.5772 17.6619 23.5552 17.4141Z" fill="#265A46"/>
<path d="M16.5942 10.9805C16.6305 11.0296 16.6669 11.0787 16.7043 11.1292C16.813 11.2728 16.9274 11.4121 17.0458 11.5478C17.2162 11.7807 17.2667 11.9309 17.2991 12.2141C16.9755 11.9168 16.7625 11.6524 16.5942 11.2449C16.5942 11.1576 16.5942 11.0704 16.5942 10.9805Z" fill="#FB420D"/>
<path d="M28.4897 33.0977C28.8054 33.2434 29.0897 33.422 29.3708 33.6264C29.3708 33.6846 29.3708 33.7427 29.3708 33.8026C29.1964 33.8026 29.0219 33.8026 28.8422 33.8026C28.9003 33.7445 28.9585 33.6863 29.0184 33.6264C28.9312 33.5719 28.8439 33.5174 28.754 33.4612C28.6668 33.3994 28.5796 33.3376 28.4897 33.274C28.4897 33.2158 28.4897 33.1576 28.4897 33.0977Z" fill="#265A46"/>
<path d="M27.1681 16.6211C27.1972 16.7374 27.2263 16.8537 27.2562 16.9735C27.0525 17.1553 27.0525 17.1553 26.8157 17.326C26.7284 17.2969 26.6412 17.2678 26.5513 17.2379C26.5804 17.0925 26.6095 16.9471 26.6394 16.7973C26.6685 16.8555 26.6976 16.9136 26.7276 16.9735C26.6985 17.0317 26.6694 17.0899 26.6394 17.1498C26.7103 17.0789 26.7812 17.008 26.8542 16.935C26.9589 16.8304 27.0635 16.7257 27.1681 16.6211Z" fill="#265A46"/>
<path d="M20.9118 36.6211C20.97 36.6211 21.0281 36.6211 21.088 36.6211C21.1171 36.6792 21.1462 36.7374 21.1762 36.7973C21.2634 36.7391 21.3506 36.681 21.4405 36.6211C21.3134 36.9176 21.1469 37.1066 20.9118 37.326C20.8783 37.121 20.849 36.9153 20.8237 36.7092C20.8528 36.6801 20.8819 36.651 20.9118 36.6211Z" fill="#265A46"/>
<path d="M15.6252 24.0234C15.443 24.2699 15.3481 24.2901 15.036 24.3483C14.9396 24.3574 14.8433 24.3665 14.7441 24.3759C14.7732 24.2886 14.8022 24.2014 14.8322 24.1115C15.0935 24.0089 15.3473 24.0157 15.6252 24.0234Z" fill="#DBE9F3"/>
<path d="M13.5106 24.7266C13.5688 24.7557 13.6269 24.7848 13.6868 24.8148C13.6868 24.8729 13.6868 24.9311 13.6868 24.991C13.5735 25.0524 13.4596 25.1128 13.3454 25.1727C13.2503 25.2233 13.2503 25.2233 13.1533 25.2749C13.0968 25.2975 13.0402 25.3201 12.9819 25.3434C12.9238 25.3144 12.8656 25.2853 12.8057 25.2553C13.0383 25.0809 13.2709 24.9064 13.5106 24.7266Z" fill="#DEEDF5"/>
<path d="M14.3917 26.1367C14.508 26.1657 14.6244 26.1948 14.7442 26.2248C14.4261 26.5148 14.2044 26.6254 13.7749 26.6653C14.1054 26.401 14.1054 26.401 14.3036 26.401C14.3327 26.3138 14.3618 26.2265 14.3917 26.1367Z" fill="#265A46"/>
<path d="M35.5387 26.9297C35.5678 26.9878 35.5968 27.046 35.6268 27.1059C35.4523 27.3676 35.4523 27.3676 35.2743 27.6346C35.2162 27.5764 35.158 27.5183 35.0981 27.4584C35.0981 27.342 35.0981 27.2257 35.0981 27.1059C35.1854 27.135 35.2726 27.1641 35.3625 27.194C35.4206 27.1068 35.4788 27.0195 35.5387 26.9297Z" fill="#265A46"/>
<path d="M29.6354 19.8789C29.6935 19.908 29.7517 19.9371 29.8116 19.967C29.8116 20.0252 29.8116 20.0833 29.8116 20.1432C29.608 20.2014 29.4045 20.2596 29.1948 20.3195C29.2664 20.1487 29.2664 20.1487 29.371 19.967C29.4583 19.9379 29.5455 19.9089 29.6354 19.8789Z" fill="#F5FAFB"/>
<path d="M26.1988 15.0352C26.2278 15.0934 26.2569 15.1516 26.2869 15.2115C26.2578 15.2696 26.2287 15.3278 26.1988 15.3877C26.2569 15.4168 26.3151 15.4459 26.375 15.4758C26.2587 15.6212 26.1424 15.7666 26.0225 15.9164C26.0349 15.786 26.0479 15.6557 26.0611 15.5254C26.0682 15.4528 26.0754 15.3802 26.0828 15.3054C26.1107 15.1234 26.1107 15.1234 26.1988 15.0352Z" fill="#265A46"/>
</g>
</g>
</g>
<path d="M54.5951 10.936L60.4271 25.984C60.6671 26.56 60.9231 26.96 61.1951 27.184C61.4831 27.392 61.7471 27.504 61.9871 27.52V28C61.5711 27.968 61.0671 27.952 60.4751 27.952C59.8991 27.936 59.3071 27.928 58.6991 27.928C57.9951 27.928 57.3391 27.936 56.7311 27.952C56.1231 27.952 55.6271 27.968 55.2431 28V27.52C56.0591 27.488 56.5791 27.352 56.8031 27.112C57.0271 26.856 56.9791 26.32 56.6591 25.504L52.4351 14.104L52.8671 13.576L49.0271 23.536C48.7231 24.336 48.5391 24.992 48.4751 25.504C48.4111 26.016 48.4511 26.416 48.5951 26.704C48.7391 26.992 48.9791 27.2 49.3151 27.328C49.6511 27.44 50.0671 27.504 50.5631 27.52V28C50.0511 27.968 49.5551 27.952 49.0751 27.952C48.5951 27.936 48.1151 27.928 47.6351 27.928C47.2831 27.928 46.9471 27.936 46.6271 27.952C46.3231 27.952 46.0511 27.968 45.8111 28V27.52C46.1631 27.44 46.5071 27.232 46.8431 26.896C47.1951 26.56 47.5311 25.976 47.8511 25.144L53.3471 10.936C53.5391 10.952 53.7471 10.96 53.9711 10.96C54.1951 10.96 54.4031 10.952 54.5951 10.936ZM56.6831 21.088V21.568H49.5311L49.7711 21.088H56.6831ZM70.8256 15.256C71.4976 15.256 72.0336 15.344 72.4336 15.52C72.8496 15.696 73.1856 15.92 73.4416 16.192C73.7296 16.496 73.9296 16.888 74.0416 17.368C74.1696 17.848 74.2336 18.496 74.2336 19.312V25.768C74.2336 26.44 74.3536 26.896 74.5936 27.136C74.8496 27.376 75.2736 27.496 75.8656 27.496V28C75.5776 27.984 75.1296 27.968 74.5216 27.952C73.9296 27.92 73.3536 27.904 72.7936 27.904C72.2016 27.904 71.6256 27.92 71.0656 27.952C70.5056 27.968 70.0896 27.984 69.8176 28V27.496C70.3296 27.496 70.6896 27.376 70.8976 27.136C71.1056 26.896 71.2096 26.44 71.2096 25.768V18.496C71.2096 18.064 71.1696 17.68 71.0896 17.344C71.0096 16.992 70.8496 16.72 70.6096 16.528C70.3696 16.32 70.0256 16.216 69.5776 16.216C69.0496 16.216 68.5776 16.36 68.1616 16.648C67.7616 16.936 67.4416 17.336 67.2016 17.848C66.9776 18.344 66.8656 18.904 66.8656 19.528V25.768C66.8656 26.44 66.9696 26.896 67.1776 27.136C67.3856 27.376 67.7456 27.496 68.2576 27.496V28C67.9856 27.984 67.5776 27.968 67.0336 27.952C66.4896 27.92 65.9376 27.904 65.3776 27.904C64.7856 27.904 64.1856 27.92 63.5776 27.952C62.9696 27.968 62.5136 27.984 62.2096 28V27.496C62.8016 27.496 63.2176 27.376 63.4576 27.136C63.7136 26.896 63.8416 26.44 63.8416 25.768V18.208C63.8416 17.488 63.7216 16.96 63.4816 16.624C63.2576 16.272 62.8336 16.096 62.2096 16.096V15.592C62.7216 15.64 63.2176 15.664 63.6976 15.664C64.2896 15.664 64.8496 15.64 65.3776 15.592C65.9216 15.528 66.4176 15.44 66.8656 15.328V17.728C67.2656 16.816 67.8176 16.176 68.5216 15.808C69.2256 15.44 69.9936 15.256 70.8256 15.256ZM82.6912 15.256C83.2832 15.256 83.8272 15.328 84.3232 15.472C84.8352 15.6 85.2752 15.784 85.6432 16.024C86.0272 16.264 86.3312 16.568 86.5552 16.936C86.7792 17.288 86.8912 17.68 86.8912 18.112C86.8912 18.64 86.7312 19.064 86.4112 19.384C86.0912 19.704 85.6912 19.864 85.2112 19.864C84.7152 19.864 84.3072 19.72 83.9872 19.432C83.6832 19.144 83.5312 18.76 83.5312 18.28C83.5312 17.816 83.6672 17.432 83.9392 17.128C84.2112 16.824 84.5392 16.624 84.9232 16.528C84.7792 16.32 84.5552 16.152 84.2512 16.024C83.9472 15.88 83.6112 15.808 83.2432 15.808C82.7632 15.808 82.3312 15.936 81.9472 16.192C81.5632 16.432 81.2272 16.8 80.9392 17.296C80.6672 17.776 80.4512 18.376 80.2912 19.096C80.1472 19.8 80.0752 20.616 80.0752 21.544C80.0752 22.84 80.2272 23.864 80.5312 24.616C80.8512 25.368 81.2592 25.904 81.7552 26.224C82.2512 26.528 82.7792 26.68 83.3392 26.68C83.6752 26.68 84.0352 26.616 84.4192 26.488C84.8032 26.36 85.1792 26.144 85.5472 25.84C85.9312 25.536 86.2752 25.104 86.5792 24.544L87.0352 24.712C86.8592 25.272 86.5712 25.832 86.1712 26.392C85.7872 26.952 85.2832 27.416 84.6592 27.784C84.0352 28.152 83.2752 28.336 82.3792 28.336C81.3552 28.336 80.4272 28.104 79.5952 27.64C78.7632 27.16 78.0992 26.44 77.6032 25.48C77.1232 24.52 76.8832 23.328 76.8832 21.904C76.8832 20.496 77.1312 19.304 77.6272 18.328C78.1232 17.336 78.8112 16.576 79.6912 16.048C80.5872 15.52 81.5872 15.256 82.6912 15.256ZM94.1671 15.256C95.5751 15.256 96.6791 15.68 97.4791 16.528C98.2791 17.376 98.6791 18.728 98.6791 20.584H90.5911L90.5671 20.128H95.8951C95.9271 19.344 95.8791 18.624 95.7511 17.968C95.6231 17.296 95.4151 16.76 95.1271 16.36C94.8551 15.96 94.4951 15.76 94.0471 15.76C93.4391 15.76 92.9111 16.12 92.4631 16.84C92.0151 17.544 91.7351 18.704 91.6231 20.32L91.7191 20.464C91.6871 20.672 91.6631 20.896 91.6471 21.136C91.6471 21.376 91.6471 21.616 91.6471 21.856C91.6471 22.96 91.8071 23.872 92.1271 24.592C92.4471 25.312 92.8631 25.84 93.3751 26.176C93.8871 26.512 94.4151 26.68 94.9591 26.68C95.3271 26.68 95.7031 26.624 96.0871 26.512C96.4711 26.4 96.8471 26.192 97.2151 25.888C97.5831 25.584 97.9191 25.152 98.2231 24.592L98.6791 24.784C98.5031 25.344 98.2071 25.904 97.7911 26.464C97.3911 27.008 96.8711 27.456 96.2311 27.808C95.5911 28.16 94.8391 28.336 93.9751 28.336C92.8871 28.336 91.9271 28.096 91.0951 27.616C90.2631 27.136 89.6151 26.424 89.1511 25.48C88.6871 24.52 88.4551 23.352 88.4551 21.976C88.4551 20.52 88.6951 19.296 89.1751 18.304C89.6711 17.312 90.3511 16.56 91.2151 16.048C92.0791 15.52 93.0631 15.256 94.1671 15.256ZM104.556 15.256C105.228 15.256 105.804 15.352 106.284 15.544C106.764 15.736 107.116 15.904 107.34 16.048C107.884 16.448 108.212 16.192 108.324 15.28H108.852C108.82 15.744 108.796 16.296 108.78 16.936C108.764 17.56 108.756 18.4 108.756 19.456H108.228C108.148 18.864 107.996 18.288 107.772 17.728C107.548 17.168 107.22 16.704 106.788 16.336C106.356 15.952 105.788 15.76 105.084 15.76C104.588 15.76 104.172 15.904 103.836 16.192C103.516 16.48 103.356 16.888 103.356 17.416C103.356 17.896 103.5 18.32 103.788 18.688C104.076 19.04 104.444 19.376 104.892 19.696C105.356 20 105.836 20.336 106.332 20.704C106.908 21.088 107.42 21.48 107.868 21.88C108.316 22.264 108.676 22.696 108.948 23.176C109.22 23.64 109.356 24.192 109.356 24.832C109.356 25.568 109.148 26.2 108.732 26.728C108.332 27.24 107.796 27.64 107.124 27.928C106.468 28.2 105.74 28.336 104.94 28.336C104.508 28.336 104.116 28.296 103.764 28.216C103.412 28.136 103.1 28.032 102.828 27.904C102.62 27.792 102.428 27.688 102.252 27.592C102.092 27.496 101.924 27.416 101.748 27.352C101.588 27.272 101.444 27.304 101.316 27.448C101.204 27.592 101.116 27.832 101.052 28.168H100.524C100.556 27.656 100.58 27.032 100.596 26.296C100.612 25.56 100.62 24.584 100.62 23.368H101.148C101.26 24.248 101.428 25.024 101.652 25.696C101.892 26.352 102.236 26.872 102.684 27.256C103.132 27.624 103.708 27.808 104.412 27.808C104.716 27.808 105.004 27.744 105.276 27.616C105.564 27.488 105.796 27.288 105.972 27.016C106.164 26.744 106.26 26.376 106.26 25.912C106.26 25.208 106.02 24.624 105.54 24.16C105.06 23.696 104.46 23.2 103.74 22.672C103.196 22.272 102.684 21.88 102.204 21.496C101.74 21.112 101.356 20.68 101.052 20.2C100.764 19.72 100.62 19.152 100.62 18.496C100.62 17.776 100.804 17.184 101.172 16.72C101.54 16.24 102.02 15.88 102.612 15.64C103.22 15.384 103.868 15.256 104.556 15.256ZM115.213 11.656V15.616H118.285V16.096H115.213V25.648C115.213 26.224 115.317 26.632 115.525 26.872C115.733 27.112 116.029 27.232 116.413 27.232C116.781 27.232 117.117 27.096 117.421 26.824C117.725 26.536 117.997 26.064 118.237 25.408L118.669 25.6C118.429 26.384 118.053 27.04 117.541 27.568C117.045 28.08 116.341 28.336 115.429 28.336C114.885 28.336 114.421 28.264 114.037 28.12C113.669 27.992 113.349 27.8 113.077 27.544C112.725 27.176 112.485 26.736 112.357 26.224C112.245 25.712 112.189 25.032 112.189 24.184V16.096H110.077V15.616H112.189V12.28C112.765 12.264 113.301 12.208 113.797 12.112C114.293 12.016 114.765 11.864 115.213 11.656ZM126.819 15.256C127.315 15.256 127.723 15.36 128.043 15.568C128.379 15.776 128.627 16.04 128.787 16.36C128.947 16.68 129.027 17.016 129.027 17.368C129.027 17.896 128.867 18.336 128.547 18.688C128.243 19.04 127.835 19.216 127.323 19.216C126.843 19.216 126.451 19.088 126.147 18.832C125.843 18.576 125.691 18.224 125.691 17.776C125.691 17.376 125.787 17.04 125.979 16.768C126.187 16.496 126.419 16.28 126.675 16.12C126.499 16.024 126.299 15.992 126.075 16.024C125.691 16.056 125.339 16.192 125.019 16.432C124.699 16.672 124.427 16.968 124.203 17.32C123.979 17.672 123.803 18.048 123.675 18.448C123.563 18.848 123.507 19.232 123.507 19.6V25.528C123.507 26.312 123.707 26.84 124.107 27.112C124.507 27.368 125.091 27.496 125.859 27.496V28C125.491 27.984 124.955 27.968 124.251 27.952C123.563 27.92 122.843 27.904 122.091 27.904C121.467 27.904 120.843 27.92 120.219 27.952C119.611 27.968 119.155 27.984 118.851 28V27.496C119.443 27.496 119.859 27.376 120.099 27.136C120.355 26.896 120.483 26.44 120.483 25.768V18.208C120.483 17.488 120.363 16.96 120.123 16.624C119.899 16.272 119.475 16.096 118.851 16.096V15.592C119.363 15.64 119.859 15.664 120.339 15.664C120.931 15.664 121.491 15.64 122.019 15.592C122.563 15.528 123.059 15.44 123.507 15.328V17.824C123.699 17.376 123.947 16.96 124.251 16.576C124.571 16.192 124.947 15.88 125.379 15.64C125.827 15.384 126.307 15.256 126.819 15.256ZM135.323 15.256C136.427 15.256 137.403 15.48 138.251 15.928C139.115 16.36 139.795 17.056 140.291 18.016C140.803 18.976 141.059 20.24 141.059 21.808C141.059 23.376 140.803 24.64 140.291 25.6C139.795 26.56 139.115 27.256 138.251 27.688C137.403 28.12 136.427 28.336 135.323 28.336C134.219 28.336 133.235 28.12 132.371 27.688C131.507 27.256 130.827 26.56 130.331 25.6C129.835 24.64 129.587 23.376 129.587 21.808C129.587 20.24 129.835 18.976 130.331 18.016C130.827 17.056 131.507 16.36 132.371 15.928C133.235 15.48 134.219 15.256 135.323 15.256ZM135.323 15.736C134.571 15.736 133.955 16.216 133.475 17.176C133.011 18.12 132.779 19.664 132.779 21.808C132.779 23.952 133.011 25.496 133.475 26.44C133.955 27.384 134.571 27.856 135.323 27.856C136.059 27.856 136.667 27.384 137.147 26.44C137.627 25.496 137.867 23.952 137.867 21.808C137.867 19.664 137.627 18.12 137.147 17.176C136.667 16.216 136.059 15.736 135.323 15.736ZM146.881 15.352V30.016C146.881 30.736 147.073 31.216 147.457 31.456C147.857 31.712 148.401 31.84 149.089 31.84V32.344C148.705 32.328 148.161 32.304 147.457 32.272C146.769 32.256 146.033 32.248 145.249 32.248C144.705 32.248 144.161 32.256 143.617 32.272C143.073 32.304 142.657 32.328 142.369 32.344V31.84C142.913 31.84 143.297 31.728 143.521 31.504C143.745 31.28 143.857 30.864 143.857 30.256V18.232C143.857 17.512 143.745 16.984 143.521 16.648C143.297 16.296 142.865 16.12 142.225 16.12V15.616C142.737 15.664 143.233 15.688 143.713 15.688C144.321 15.688 144.889 15.664 145.417 15.616C145.945 15.552 146.433 15.464 146.881 15.352ZM150.649 15.256C151.481 15.256 152.225 15.488 152.881 15.952C153.537 16.4 154.049 17.064 154.417 17.944C154.801 18.824 154.993 19.928 154.993 21.256C154.993 22.312 154.873 23.28 154.633 24.16C154.393 25.024 154.033 25.768 153.553 26.392C153.089 27.016 152.513 27.496 151.825 27.832C151.137 28.168 150.353 28.336 149.473 28.336C148.801 28.336 148.201 28.208 147.673 27.952C147.145 27.696 146.761 27.352 146.521 26.92L146.761 26.584C146.953 26.92 147.217 27.192 147.553 27.4C147.889 27.608 148.289 27.712 148.753 27.712C149.521 27.712 150.129 27.464 150.577 26.968C151.025 26.456 151.337 25.744 151.513 24.832C151.705 23.92 151.801 22.864 151.801 21.664C151.801 20.336 151.713 19.272 151.537 18.472C151.361 17.672 151.097 17.096 150.745 16.744C150.393 16.376 149.977 16.192 149.497 16.192C148.841 16.192 148.249 16.456 147.721 16.984C147.209 17.496 146.897 18.248 146.785 19.24L146.617 18.568C146.873 17.512 147.361 16.696 148.081 16.12C148.801 15.544 149.657 15.256 150.649 15.256ZM162.38 15.256C163.788 15.256 164.892 15.68 165.692 16.528C166.492 17.376 166.892 18.728 166.892 20.584H158.804L158.78 20.128H164.108C164.14 19.344 164.092 18.624 163.964 17.968C163.836 17.296 163.628 16.76 163.34 16.36C163.068 15.96 162.708 15.76 162.26 15.76C161.652 15.76 161.124 16.12 160.676 16.84C160.228 17.544 159.948 18.704 159.836 20.32L159.932 20.464C159.9 20.672 159.876 20.896 159.86 21.136C159.86 21.376 159.86 21.616 159.86 21.856C159.86 22.96 160.02 23.872 160.34 24.592C160.66 25.312 161.076 25.84 161.588 26.176C162.1 26.512 162.628 26.68 163.172 26.68C163.54 26.68 163.916 26.624 164.3 26.512C164.684 26.4 165.06 26.192 165.428 25.888C165.796 25.584 166.132 25.152 166.436 24.592L166.892 24.784C166.716 25.344 166.42 25.904 166.004 26.464C165.604 27.008 165.084 27.456 164.444 27.808C163.804 28.16 163.052 28.336 162.188 28.336C161.1 28.336 160.14 28.096 159.308 27.616C158.476 27.136 157.828 26.424 157.364 25.48C156.9 24.52 156.668 23.352 156.668 21.976C156.668 20.52 156.908 19.296 157.388 18.304C157.884 17.312 158.564 16.56 159.428 16.048C160.292 15.52 161.276 15.256 162.38 15.256ZM179.681 9.208V25.384C179.681 26.104 179.801 26.64 180.041 26.992C180.281 27.328 180.705 27.496 181.313 27.496V28C180.817 27.952 180.321 27.928 179.825 27.928C179.233 27.928 178.673 27.952 178.145 28C177.617 28.048 177.121 28.136 176.657 28.264V12.088C176.657 11.368 176.537 10.84 176.297 10.504C176.073 10.152 175.649 9.976 175.025 9.976V9.472C175.537 9.52 176.033 9.544 176.513 9.544C177.121 9.544 177.689 9.52 178.217 9.472C178.745 9.408 179.233 9.32 179.681 9.208ZM173.945 15.256C174.649 15.256 175.281 15.392 175.841 15.664C176.401 15.936 176.817 16.392 177.089 17.032L176.801 17.272C176.577 16.808 176.273 16.464 175.889 16.24C175.505 16.016 175.073 15.904 174.593 15.904C173.729 15.904 173.033 16.392 172.505 17.368C171.993 18.328 171.737 19.808 171.737 21.808C171.737 23.152 171.841 24.24 172.049 25.072C172.257 25.888 172.553 26.48 172.937 26.848C173.337 27.216 173.809 27.4 174.353 27.4C174.929 27.4 175.449 27.168 175.913 26.704C176.377 26.224 176.649 25.544 176.729 24.664L176.897 25.336C176.689 26.312 176.297 27.056 175.721 27.568C175.145 28.08 174.385 28.336 173.441 28.336C172.481 28.336 171.625 28.104 170.873 27.64C170.137 27.16 169.561 26.44 169.145 25.48C168.745 24.504 168.545 23.272 168.545 21.784C168.545 20.328 168.785 19.12 169.265 18.16C169.745 17.184 170.393 16.456 171.209 15.976C172.025 15.496 172.937 15.256 173.945 15.256ZM185.1 9.472C185.676 9.472 186.148 9.632 186.516 9.952C186.884 10.272 187.068 10.696 187.068 11.224C187.068 11.752 186.884 12.176 186.516 12.496C186.148 12.816 185.676 12.976 185.1 12.976C184.524 12.976 184.052 12.816 183.684 12.496C183.316 12.176 183.132 11.752 183.132 11.224C183.132 10.696 183.316 10.272 183.684 9.952C184.052 9.632 184.524 9.472 185.1 9.472ZM186.78 15.328V25.768C186.78 26.44 186.9 26.896 187.14 27.136C187.396 27.376 187.82 27.496 188.412 27.496V28C188.124 27.984 187.684 27.968 187.092 27.952C186.5 27.92 185.9 27.904 185.292 27.904C184.7 27.904 184.1 27.92 183.492 27.952C182.884 27.968 182.428 27.984 182.124 28V27.496C182.716 27.496 183.132 27.376 183.372 27.136C183.628 26.896 183.756 26.44 183.756 25.768V18.232C183.756 17.496 183.636 16.96 183.396 16.624C183.172 16.272 182.748 16.096 182.124 16.096V15.592C182.636 15.64 183.132 15.664 183.612 15.664C184.204 15.664 184.764 15.64 185.292 15.592C185.836 15.528 186.332 15.44 186.78 15.328ZM192.579 28.168C191.891 28.168 191.307 28.04 190.827 27.784C190.347 27.512 189.987 27.152 189.747 26.704C189.507 26.24 189.387 25.728 189.387 25.168C189.387 24.48 189.547 23.92 189.867 23.488C190.187 23.04 190.595 22.688 191.091 22.432C191.603 22.16 192.139 21.936 192.699 21.76C193.259 21.568 193.787 21.392 194.283 21.232C194.779 21.056 195.187 20.856 195.507 20.632C195.827 20.408 195.987 20.112 195.987 19.744V17.992C195.987 17.48 195.907 17.064 195.747 16.744C195.603 16.408 195.379 16.16 195.075 16C194.787 15.824 194.419 15.736 193.971 15.736C193.635 15.736 193.283 15.784 192.915 15.88C192.547 15.976 192.243 16.16 192.003 16.432C192.419 16.544 192.739 16.752 192.963 17.056C193.203 17.36 193.323 17.728 193.323 18.16C193.323 18.656 193.155 19.048 192.819 19.336C192.499 19.608 192.091 19.744 191.595 19.744C191.067 19.744 190.667 19.576 190.395 19.24C190.123 18.904 189.987 18.512 189.987 18.064C189.987 17.616 190.099 17.248 190.323 16.96C190.547 16.656 190.859 16.384 191.259 16.144C191.659 15.872 192.171 15.656 192.795 15.496C193.419 15.336 194.099 15.256 194.835 15.256C195.539 15.256 196.163 15.336 196.707 15.496C197.251 15.64 197.715 15.904 198.099 16.288C198.483 16.656 198.731 17.112 198.843 17.656C198.955 18.2 199.011 18.864 199.011 19.648V26.224C199.011 26.624 199.059 26.912 199.155 27.088C199.251 27.248 199.403 27.328 199.611 27.328C199.771 27.328 199.923 27.288 200.067 27.208C200.211 27.128 200.371 27.016 200.547 26.872L200.811 27.28C200.459 27.552 200.091 27.768 199.707 27.928C199.323 28.088 198.859 28.168 198.315 28.168C197.755 28.168 197.307 28.088 196.971 27.928C196.651 27.768 196.411 27.536 196.251 27.232C196.107 26.928 196.027 26.568 196.011 26.152C195.627 26.792 195.155 27.288 194.595 27.64C194.035 27.992 193.363 28.168 192.579 28.168ZM194.019 26.824C194.403 26.824 194.755 26.72 195.075 26.512C195.411 26.304 195.715 25.992 195.987 25.576V20.728C195.827 20.968 195.595 21.184 195.291 21.376C195.003 21.568 194.691 21.76 194.355 21.952C194.019 22.144 193.699 22.368 193.395 22.624C193.107 22.864 192.859 23.168 192.651 23.536C192.459 23.888 192.363 24.344 192.363 24.904C192.363 25.528 192.515 26.008 192.819 26.344C193.123 26.664 193.523 26.824 194.019 26.824Z" fill="#14532D"/>
<defs>
<clipPath id="clip0_28_30651">
<rect width="42" height="40" fill="white"/>
</clipPath>
</defs>
</svg>
