<svg width="42" height="40" viewBox="0 0 42 40" fill="none" xmlns="http://www.w3.org/2000/svg">
<g clip-path="url(#clip0_2_1504)">
<mask id="mask0_2_1504" style="mask-type:luminance" maskUnits="userSpaceOnUse" x="0" y="0" width="42" height="40">
<path d="M42 0H0V40H42V0Z" fill="white"/>
</mask>
<g mask="url(#mask0_2_1504)">
<mask id="mask1_2_1504" style="mask-type:luminance" maskUnits="userSpaceOnUse" x="-25" y="-17" width="92" height="91">
<path d="M66.1141 -16.4224H-24.1141V73.8058H66.1141V-16.4224Z" fill="white"/>
</mask>
<g mask="url(#mask1_2_1504)">
<path d="M11.4838 12.3026C12.7789 12.4235 14.2281 12.7856 15.1354 13.7878C15.7176 14.589 16.0783 15.3967 16.081 16.386C16.0781 17.1076 16.0781 17.1076 16.4182 17.7216C16.5334 17.8269 16.6511 17.9295 16.7706 18.03C16.9127 18.1744 17.054 18.3194 17.1947 18.4651C17.4435 18.7213 17.4435 18.7213 17.7399 18.9112C17.7886 17.3566 17.5468 16.4039 16.5063 15.2104C16.5644 15.1813 16.6226 15.1522 16.6825 15.1223C17.3419 15.3793 17.787 15.7594 18.1147 16.3934C18.3896 17.0456 18.5181 17.6826 18.5849 18.3851C18.7336 19.8717 19.3614 20.8824 20.197 22.0959C20.2952 22.2595 20.2457 22.1765 20.2839 22.2435C20.3221 22.3105 20.3492 22.1568 20.3997 22.0137C20.4501 21.8706 20.4727 21.4358 20.4676 20.9358C20.4665 20.766 20.4664 20.5962 20.4674 20.4264C20.5141 19.3139 20.5141 19.3139 20.0804 18.3308C19.9765 18.2297 19.872 18.1293 19.7665 18.03C19.4148 17.4398 19.4274 16.7579 19.5021 16.0915C19.7295 15.2062 20.3194 14.2302 21.0882 13.7125C21.5297 14.0896 21.8133 14.4779 22.085 14.9846C22.1295 15.0666 22.1295 15.0666 22.175 15.1502C22.5412 15.8574 22.716 16.6044 22.5286 17.3898C22.3615 17.9092 22.1597 18.2563 21.748 18.6169C21.3782 19.1983 21.5153 20.1241 21.5177 20.7891C21.5174 20.8823 21.5171 20.9755 21.5167 21.0715C21.5168 21.1615 21.5169 21.2515 21.517 21.3443C21.5172 21.4653 21.5172 21.4653 21.5173 21.5887C21.5288 21.8203 21.5655 22.0337 21.6169 22.2595C21.7996 21.9995 21.9809 21.7385 22.1621 21.4775C22.213 21.405 22.2639 21.3325 22.3164 21.2579C22.9733 20.3079 23.2715 19.5276 23.4287 18.377C23.6227 16.9683 23.9189 16.1202 25.0543 15.2386C25.2295 15.1223 25.2295 15.1223 25.4057 15.1223C25.2759 15.5026 25.0784 15.7819 24.8385 16.1025C24.1784 17.0303 24.1317 17.8897 24.1722 18.9993C24.2306 18.9461 24.2891 18.893 24.3494 18.8382C24.4272 18.7678 24.505 18.6973 24.5852 18.6248C24.7002 18.5205 24.7002 18.5205 24.8175 18.4141C25.0533 18.2062 25.0533 18.2062 25.2808 18.0424C25.6487 17.7167 25.8564 17.3743 25.8876 16.8863C25.8896 16.7627 25.8905 16.6391 25.8904 16.5156C25.928 15.3333 26.3048 14.3511 27.1735 13.5197C28.0619 12.8197 29.3795 12.2598 30.5163 12.3026C30.5653 14.0049 30.444 15.4106 29.2672 16.7283C28.6993 17.286 28.037 17.4917 27.2782 17.6721C26.6773 17.8209 26.3477 18.0197 25.9344 18.4706C25.8152 18.5863 25.6959 18.702 25.5765 18.8175C25.2399 19.1593 24.9196 19.5118 24.6127 19.8804C24.5674 19.9345 24.5221 19.9885 24.4754 20.0442C24.0736 20.5493 23.5554 21.2465 23.5554 21.907C23.6641 21.8353 23.6641 21.8353 23.775 21.7621C24.5314 21.2729 25.1858 21.0083 26.0785 20.8487C27.1676 20.6496 27.6884 20.2364 28.3472 19.3672C28.8521 18.7253 29.543 18.2935 30.3401 18.1181C30.6196 18.0904 30.8964 18.0846 31.1772 18.0851C31.2925 18.0852 31.2925 18.0852 31.4102 18.0853C32.2797 18.101 33.1251 18.2525 33.8646 18.7349C33.5799 19.7121 32.7701 20.7107 31.8783 21.209C31.2033 21.562 30.6829 21.748 29.9216 21.7473C29.8579 21.7474 29.7941 21.7474 29.7285 21.7475C29.4171 21.7444 29.1295 21.7345 28.8312 21.6427C27.756 21.3194 26.4617 21.6009 25.4529 22.0399C24.849 22.3673 24.414 22.7745 23.9959 23.3168C24.0948 23.3027 24.1937 23.2886 24.2956 23.2741C24.7125 23.2222 25.1254 23.2114 25.5451 23.2077C25.624 23.207 25.7028 23.2063 25.7841 23.2056C25.95 23.2043 26.116 23.2034 26.2819 23.2027C26.45 23.2017 26.618 23.1999 26.7861 23.1973C28.0985 23.177 29.0755 23.2412 30.1071 24.137C30.7502 24.7915 31.4856 25.7176 31.4856 26.6651C30.2654 26.9947 28.9634 27.168 27.7762 26.6366C27.0384 26.2106 26.5415 25.626 26.1106 24.9029C25.9268 24.6093 25.789 24.3948 25.4939 24.198C24.793 24.0872 24.2183 24.2302 23.6435 24.6385C23.025 25.1823 22.7155 25.7079 22.6501 26.5261C22.6111 28.0225 22.7384 29.806 23.7405 30.9879C24.4024 31.6647 25.1399 31.7107 26.0494 31.8064C27.122 31.9388 27.872 32.3482 28.648 33.093C28.8136 33.2471 28.9705 33.3692 29.1616 33.4884C29.2652 33.5566 29.2652 33.5566 29.3708 33.6261C29.3708 33.6843 29.3708 33.7424 29.3708 33.8023C28.5123 33.8637 27.9859 33.4747 27.2737 33.0331C26.9417 32.8414 26.647 32.8119 26.2704 32.7835C26.1746 32.7761 26.0789 32.7688 25.9802 32.7611C25.9069 32.7558 25.8337 32.7505 25.7582 32.745C25.7966 32.7973 25.835 32.8497 25.8745 32.9036C26.1632 33.3055 26.423 33.7039 26.6503 34.1438C27.0199 34.8325 27.5385 35.063 28.2254 35.3884C28.2254 35.4175 28.2254 35.4465 28.2254 35.4765C27.5791 35.526 27.0219 35.4749 26.4631 35.124C26.168 34.8318 25.942 34.5044 25.7417 34.1414C25.4414 33.5982 25.0682 33.3803 24.5246 33.0974C24.4075 33.0345 24.2905 32.9714 24.1735 32.9081C23.851 32.7343 23.5273 32.5629 23.2029 32.3925C23.4342 33.4675 24.004 33.9381 24.8767 34.5312C25.296 34.8238 25.5334 35.0983 25.7582 35.5646C25.7873 35.6228 25.8164 35.6809 25.8463 35.7408C25.8498 35.917 25.8501 36.0933 25.8463 36.2695C25.5276 36.115 25.3477 35.9388 25.1359 35.6637C24.8041 35.2642 24.4302 35.1157 23.9498 34.9399C23.7316 34.8597 23.7316 34.8597 23.6435 34.7716C23.5258 35.3892 23.3705 36.2249 23.6414 36.8068C23.7657 36.9633 23.7657 36.9633 23.9959 37.1506C24.0632 37.2197 24.1304 37.2888 24.1997 37.3599C24.2488 37.4072 24.2978 37.4544 24.3484 37.5031C23.8151 37.4794 23.4456 37.423 23.0267 37.0625C22.6428 36.5646 22.5833 36.2451 22.5829 35.6266C22.5723 34.6239 22.3303 33.6895 21.6382 32.9267C21.584 32.8804 21.584 32.8804 21.5287 32.8331C21.6079 33.4107 21.6976 33.9765 21.8482 34.5403C22.0247 35.2277 22.0307 35.8054 21.705 36.4457C21.5088 36.7126 21.302 36.9637 21.0847 37.2136C20.829 37.5117 20.8057 37.7005 20.7743 38.0869C20.7669 38.1752 20.7595 38.2636 20.7519 38.3546C20.7466 38.4226 20.7412 38.4905 20.7357 38.5605C20.4089 38.2547 20.2832 38.0334 20.2621 37.5857C20.2635 37.1536 20.416 36.8662 20.6394 36.5032C20.9016 35.8674 20.6736 35.296 20.4438 34.689C20.3891 34.5395 20.3343 34.39 20.2797 34.2405C20.2529 34.1683 20.2261 34.096 20.1986 34.0216C20.0769 33.6865 19.9651 33.3482 19.8546 33.0093C19.8153 33.0955 19.8153 33.0955 19.7752 33.1834C19.7128 33.3204 19.6503 33.4574 19.5878 33.5944C19.4526 33.9226 19.4032 34.2118 19.3954 34.5661C19.3929 34.6449 19.3904 34.7236 19.3879 34.8048C19.3833 34.9682 19.3794 35.1315 19.3762 35.2949C19.3486 36.0982 19.1994 36.7485 18.621 37.3269C18.3897 37.4976 18.3897 37.4976 18.1804 37.5912C18.0932 37.5621 18.006 37.5331 17.9161 37.5031C17.9469 37.4553 17.9777 37.4075 18.0094 37.3582C18.0495 37.2952 18.0896 37.2321 18.1309 37.1672C18.1707 37.1048 18.2106 37.0425 18.2517 36.9782C18.6319 36.3262 18.4117 35.5549 18.2685 34.8597C17.5621 35.1451 17.1167 35.4067 16.7352 36.0781C16.5656 36.3087 16.4237 36.3635 16.1538 36.4457C16.339 35.5913 16.5214 34.9158 17.2112 34.331C17.4341 34.1906 17.6596 34.0574 17.8892 33.9283C18.2084 33.7303 18.3289 33.6298 18.4403 33.2616C18.4618 33.1584 18.4832 33.0551 18.5054 32.9487C18.5275 32.8448 18.5496 32.7409 18.5725 32.6338C18.5885 32.5542 18.6045 32.4746 18.621 32.3925C17.5525 32.9644 16.7274 33.4513 16.0406 34.4745C15.6735 34.9821 15.2824 35.2804 14.6559 35.3884C14.3907 35.4003 14.128 35.3992 13.8629 35.3884C14.139 35.0742 14.4902 34.9286 14.8593 34.7447C15.3663 34.4254 15.5576 33.9547 15.7793 33.4223C15.8072 33.3571 15.835 33.2918 15.8637 33.2246C15.9316 33.065 15.9988 32.905 16.0657 32.745C15.2578 32.8184 14.7054 32.9934 14.0391 33.4499C13.4819 33.8141 13.124 33.9437 12.4531 33.8904C12.424 33.8323 12.3949 33.7741 12.3649 33.7142C12.4641 33.6597 12.4641 33.6597 12.5653 33.6041C13.0301 33.3418 13.4641 33.0772 13.8739 32.734C14.611 32.1328 15.261 31.92 16.1875 31.7833C17.0097 31.6592 17.7564 31.4081 18.3567 30.8065C19.1868 29.6801 19.5075 27.6797 19.3259 26.3127C19.1264 25.538 18.7933 24.8115 18.0923 24.3742C17.6338 24.165 17.1885 24.043 16.6825 24.1098C16.2491 24.3488 16.0455 24.5892 15.8069 25.0185C15.2646 25.9483 14.62 26.4955 13.5875 26.8248C12.5745 27.0742 11.4149 26.9946 10.4264 26.6651C10.8156 25.3915 11.4676 24.3021 12.6293 23.5812C13.2442 23.2774 13.7668 23.1782 14.4483 23.1912C14.5341 23.1915 14.6198 23.1918 14.7081 23.1921C14.9789 23.1934 15.2497 23.1973 15.5205 23.2012C15.7038 23.2022 15.8871 23.2031 16.0704 23.2038C16.2456 23.2049 16.4209 23.2063 16.5961 23.2077C16.6778 23.2084 16.7595 23.209 16.8437 23.2097C17.2114 23.2151 17.5576 23.2241 17.9161 23.3168C17.4697 22.5132 16.7541 22.0144 15.8895 21.7308C15.0297 21.5237 14.0295 21.4078 13.1666 21.6416C12.1629 21.9098 11.1547 21.7954 10.2502 21.2902C10.1799 21.2519 10.1096 21.2137 10.0372 21.1742C9.11294 20.6159 8.54676 19.7576 8.04738 18.823C8.42385 18.3404 9.23477 18.2212 9.80965 18.1181C11.0534 17.9842 12.1337 18.0661 13.1481 18.8413C13.5406 19.1745 13.8706 19.5716 14.2076 19.9596C14.8534 20.6744 15.518 20.8648 16.4402 21.0479C17.2557 21.2233 17.8644 21.4953 18.5329 21.9951C18.4023 20.9241 17.5228 20.1105 16.8286 19.3381C16.6887 19.1824 16.5501 19.0255 16.4116 18.8685C16.3276 18.7743 16.2435 18.6802 16.1593 18.5862C16.0858 18.5041 16.0124 18.422 15.9366 18.3374C15.4974 17.9062 15.0924 17.7166 14.4962 17.595C13.3786 17.3377 12.6146 16.8208 11.985 15.8437C11.5009 15.0601 11.4459 14.1964 11.4673 13.2994C11.4685 13.2029 11.4697 13.1064 11.4709 13.007C11.474 12.7722 11.4783 12.5374 11.4838 12.3026Z" fill="#265A46"/>
<path d="M32.1106 5.57884C32.3337 5.77905 32.5524 5.98362 32.7692 6.19069C32.8907 6.30649 33.0136 6.42078 33.1366 6.53501C34.1667 7.52033 35.0146 8.68482 35.715 9.92362C35.7463 9.97802 35.7776 10.0324 35.8098 10.0884C36.694 11.6362 37.3031 13.2869 37.6535 15.0342C37.6679 15.1054 37.6823 15.1766 37.6972 15.2501C38.1269 17.4901 38.0925 19.9551 37.5654 22.1714C37.5436 22.2628 37.5219 22.3543 37.4995 22.4486C37.1984 23.6766 36.8095 24.8296 36.2437 25.9602C36.202 26.0456 36.202 26.0456 36.1594 26.1327C34.7418 29.0179 32.4497 31.2343 29.8114 33.0093C29.5206 32.8348 29.2298 32.6604 28.9302 32.4806C29.1912 32.2658 29.4585 32.0634 29.7336 31.8673C30.6267 31.2283 31.4525 30.5592 32.2356 29.789C32.3433 29.6838 32.4536 29.5813 32.5646 29.4796C35.0723 27.1387 36.6499 23.3538 36.8605 19.9685C37.0207 15.165 35.8282 10.9674 32.5429 7.3683C32.4771 7.29618 32.4114 7.22405 32.3436 7.14974C31.0642 5.8136 29.4545 4.79162 27.7848 4.01999C27.6844 3.97297 27.5839 3.92594 27.4805 3.87749C25.9855 3.20649 24.4667 2.84672 22.8504 2.61017C22.6822 2.58445 22.6822 2.58445 22.5107 2.5582C18.6685 2.10181 14.4736 3.24455 11.4067 5.60603C11.2255 5.75136 11.0456 5.89825 10.867 6.0466C10.8177 6.08708 10.7684 6.12756 10.7176 6.16926C7.79447 8.57216 5.72138 12.0411 5.22771 15.8272C5.21468 15.9152 5.21468 15.9152 5.20138 16.0051C4.59995 20.0761 5.51836 24.3942 7.94993 27.7425C8.04177 27.8634 8.04177 27.8634 8.13545 27.9868C8.19213 28.062 8.24881 28.1372 8.30721 28.2147C9.58325 29.8557 11.08 31.1541 12.8055 32.3044C12.6735 32.6404 12.4706 32.7925 12.1887 33.0093C11.086 32.2918 10.068 31.5302 9.1047 30.6302C9.0286 30.5599 8.9525 30.4896 8.87409 30.4172C7.84151 29.428 6.98554 28.2619 6.28507 27.0176C6.24854 26.9546 6.21201 26.8916 6.17437 26.8267C5.14414 25.0376 4.46144 23.0724 4.17035 21.0259C4.16158 20.9652 4.15281 20.9045 4.14378 20.842C3.89034 18.7554 3.94262 16.4576 4.43469 14.4174C4.45072 14.3471 4.46675 14.2768 4.48326 14.2044C5.44742 10.0462 8.22907 6.36641 11.7953 4.08072C13.7951 2.83766 15.9493 2.03631 18.2685 1.64093C18.3573 1.62544 18.3573 1.62544 18.448 1.60965C23.2612 0.808828 28.4642 2.36858 32.1106 5.57884Z" fill="#265A46"/>
<path d="M19.9279 6.99106C20.2684 7.1923 20.4706 7.45476 20.6476 7.80887C20.7385 8.80412 20.7385 8.80412 20.4824 9.18012C20.3897 9.28642 20.3897 9.28642 20.2952 9.39492C20.237 9.48212 20.1789 9.56942 20.119 9.65922C20.6821 9.64522 20.9817 9.34172 21.3525 8.95432C21.5165 8.75272 21.6732 8.547 21.8289 8.33893C22.1208 7.96973 22.4942 7.67126 22.9678 7.60304C23.4861 7.59488 23.8614 7.63798 24.2603 7.9851C24.8483 8.59942 25.0623 9.24352 25.0974 10.0833C25.0805 10.8261 24.8482 11.4779 24.4145 12.0824C24.0388 12.4239 23.6652 12.6374 23.1506 12.6692C22.5567 12.6325 22.1887 12.4464 21.7766 12.0108C21.5099 11.6154 21.3525 11.2846 21.3525 10.8047C21.5413 10.8969 21.7253 10.9926 21.9074 11.0976C22.4209 11.383 22.7185 11.4956 23.291 11.3334C23.7554 11.0834 24.0912 10.7833 24.2603 10.276C24.3058 9.71902 24.3128 9.25972 23.9959 8.77812C23.8946 8.65812 23.8946 8.65812 23.6215 8.66242C23.2275 8.69532 23.1362 8.77822 22.8505 9.04242C22.7117 9.21682 22.5778 9.39512 22.4485 9.57662C22.1517 9.99272 21.9327 10.2882 21.4407 10.4523C21.3178 10.4581 21.1947 10.4598 21.0717 10.4578C20.9608 10.4559 20.85 10.4541 20.7357 10.4523C20.7548 10.5013 20.7739 10.5504 20.7936 10.6009C21.0393 11.2743 21.1011 11.8182 20.8159 12.4947C20.5912 12.9442 20.3313 13.1983 19.8546 13.36C19.0406 13.4808 18.4144 13.2928 17.7399 12.8313C17.0905 12.277 16.686 11.5199 16.4182 10.7166C16.4147 10.511 16.4143 10.3054 16.4182 10.0998C16.4763 10.0998 16.5345 10.0998 16.5944 10.0998C16.6939 10.2597 16.7863 10.424 16.8753 10.5899C17.3078 11.3471 17.7616 11.877 18.621 12.1264C19.1182 12.2076 19.5113 12.1037 19.9427 11.8621C20.1131 11.6032 20.1404 11.4185 20.1079 11.1131C20.1023 11.0468 20.0966 10.9804 20.0907 10.9121C20.0084 10.6432 19.9038 10.5315 19.6784 10.3641C19.4101 10.3217 19.4101 10.3217 19.1277 10.3421C18.9605 10.3494 18.7933 10.3567 18.621 10.3641C18.5338 10.0152 18.4466 9.66632 18.3567 9.30682C18.4457 9.28132 18.5348 9.25592 18.6265 9.22972C18.6826 9.21332 18.7388 9.19702 18.7966 9.18012C18.9627 9.13362 19.1305 9.09332 19.2984 9.05352C19.6102 8.94752 19.7521 8.86882 19.9427 8.60192C20.0015 8.37779 20.0015 8.37779 19.9427 8.16132C19.7877 7.96585 19.6589 7.90926 19.4151 7.86566C18.8664 7.8306 18.5173 8.00125 18.0923 8.33755C18.0342 8.3957 17.976 8.45386 17.9161 8.51378C17.7468 8.50586 17.7468 8.50586 17.5637 8.42566C17.4136 8.24358 17.4136 8.24358 17.2773 8.02364C17.2314 7.95084 17.1855 7.87803 17.1382 7.80302C17.1042 7.74679 17.0701 7.69057 17.035 7.63264C17.7344 6.63985 18.851 6.51166 19.9279 6.99106Z" fill="#FC5D14"/>
<path d="M19.5902 5.60604C19.6484 5.60604 19.7065 5.60604 19.7665 5.60604C19.8641 5.71451 19.957 5.82729 20.0473 5.94197C20.3492 6.29378 20.55 6.45684 21 6.57529C21.6958 6.57529 22.1856 6.2819 22.6742 5.79878C22.7324 5.73518 22.7905 5.67157 22.8504 5.60604C23.083 5.86773 23.3157 6.12943 23.5553 6.39906C23.315 6.87978 23.0022 7.14539 22.5145 7.35179C21.888 7.55902 21.3436 7.51426 20.7539 7.22099C20.1822 6.87694 19.7884 6.51459 19.5902 5.87038C19.5902 5.78314 19.5902 5.69591 19.5902 5.60604Z" fill="#FC5B14"/>
<path d="M25.9344 33.3618C26.0917 33.3711 26.0917 33.3711 26.2869 33.4499C26.4407 33.6967 26.4407 33.6967 26.5898 34.0061C26.8857 34.6192 27.2043 34.8983 27.8124 35.1901C27.8902 35.2278 27.968 35.2655 28.0481 35.3044C28.1066 35.3321 28.1651 35.3598 28.2254 35.3884C28.2254 35.4175 28.2254 35.4465 28.2254 35.4765C27.5785 35.526 27.0229 35.4742 26.4631 35.124C25.9783 34.6527 25.6501 34.0332 25.3176 33.4499C25.3722 33.479 25.4267 33.508 25.4829 33.538C25.6622 33.6386 25.6622 33.6386 25.8463 33.6261C25.8754 33.5389 25.9045 33.4516 25.9344 33.3618Z" fill="#265A46"/>
<path d="M15.9776 31.952C15.9776 31.981 15.9776 32.0101 15.9776 32.0401C15.9033 32.054 15.829 32.068 15.7525 32.0824C15.6077 32.1132 15.6077 32.1132 15.4599 32.1447C15.3158 32.1738 15.3158 32.1738 15.1687 32.2036C14.9009 32.2812 14.9009 32.2812 14.7984 32.5347C14.7804 32.6041 14.7625 32.6735 14.744 32.745C14.8603 32.7741 14.9766 32.8031 15.0965 32.8331C15.0494 32.8588 15.0024 32.8844 14.954 32.9109C14.4978 33.1619 14.0494 33.4233 13.6044 33.6936C13.322 33.8623 13.1668 33.9006 12.8386 33.896C12.7305 33.8948 12.7305 33.8948 12.6203 33.8935C12.5651 33.8925 12.5099 33.8915 12.4531 33.8904C12.424 33.8323 12.3949 33.7741 12.3649 33.7142C12.4311 33.6779 12.4972 33.6415 12.5653 33.6041C13.0302 33.3418 13.4641 33.0772 13.8739 32.734C14.5436 32.1832 15.1003 31.8812 15.9776 31.952Z" fill="#265A46"/>
<path d="M25.4057 15.1223C25.2759 15.5026 25.0784 15.7819 24.8385 16.1025C24.1761 17.0329 24.1244 17.9768 24.084 19.0874C24.0549 19.0874 24.0259 19.0874 23.9959 19.0874C23.9668 18.5931 23.9377 18.0987 23.9078 17.5894C23.8206 17.5894 23.7333 17.5894 23.6434 17.5894C23.686 16.6958 23.9677 16.167 24.6292 15.5628C25.1394 15.1223 25.1394 15.1223 25.4057 15.1223Z" fill="#265A46"/>
<path d="M21.2644 4.72489C21.3225 4.72489 21.3807 4.72489 21.4406 4.72489C21.5928 4.87909 21.5928 4.87909 21.76 5.07734C21.8435 5.17548 21.8435 5.17548 21.9287 5.2756C21.9712 5.32648 22.0136 5.37737 22.0574 5.4298C21.9318 5.73396 21.7845 5.8793 21.5177 6.06862C21.4539 6.11451 21.39 6.16039 21.3243 6.20767C21.2754 6.24175 21.2266 6.27582 21.1763 6.31093C20.7973 6.14249 20.6301 5.93508 20.3833 5.60602C20.3833 5.54787 20.3833 5.48971 20.3833 5.4298C20.5536 5.28076 20.5536 5.28076 20.7743 5.11589C21.0289 4.93154 21.0289 4.93154 21.2644 4.72489Z" fill="#FC5712"/>
<path d="M27.5205 32.3044C27.89 32.4269 28.1152 32.599 28.3961 32.8661C28.642 33.0951 28.8764 33.3103 29.1616 33.4884C29.2306 33.5339 29.2997 33.5793 29.3708 33.6261C29.3708 33.6843 29.3708 33.7424 29.3708 33.8023C28.5123 33.8636 27.9859 33.4747 27.2737 33.0331C26.9417 32.8414 26.647 32.8119 26.2704 32.7835C26.1746 32.7761 26.0789 32.7687 25.9802 32.7611C25.9069 32.7558 25.8337 32.7505 25.7582 32.745C25.7582 32.7159 25.7582 32.6868 25.7582 32.6569C26.4906 32.6161 27.0534 32.637 27.6967 33.0093C27.7548 32.893 27.813 32.7767 27.8729 32.6569C27.7566 32.5405 27.6403 32.4242 27.5205 32.3044Z" fill="#265A46"/>
<path d="M16.4182 10.0998C16.4763 10.0998 16.5345 10.0998 16.5944 10.0998C16.6939 10.2597 16.7863 10.424 16.8753 10.5899C17.3085 11.3499 17.7326 11.7754 18.5329 12.1264C18.2686 12.2145 18.2686 12.2145 18.1071 12.1422C18.0208 12.0853 18.0208 12.0853 17.9326 12.0273C17.871 11.9867 17.8093 11.9462 17.7457 11.9044C17.5787 11.7848 17.4221 11.6598 17.2663 11.5261C17.0626 11.3146 17.0626 11.3146 16.8587 11.3334C17.0781 11.5684 17.2671 11.735 17.5637 11.8621C17.5346 12.0075 17.5055 12.1529 17.4755 12.3026C17.836 12.6321 18.1688 12.8971 18.621 13.0957C18.3567 13.1838 18.3567 13.1838 18.1822 13.1077C17.2912 12.5226 16.7239 11.7399 16.4182 10.7166C16.3894 10.4948 16.3928 10.3231 16.4182 10.0998Z" fill="#FB4E10"/>
<path d="M16.5062 15.1223C17.173 15.2473 17.6136 15.6138 18.0042 16.1631C18.0923 16.3559 18.0923 16.3559 18.0923 16.5321C18.0341 16.5321 17.976 16.5321 17.9161 16.5321C17.9161 16.5902 17.9161 16.6484 17.9161 16.7083C17.8579 16.7083 17.7997 16.7083 17.7398 16.7083C17.7689 16.8828 17.798 17.0572 17.8279 17.237C17.6796 17.0145 17.5753 16.812 17.4645 16.5706C17.2456 16.1237 16.965 15.76 16.645 15.3808C16.5062 15.2104 16.5062 15.2104 16.5062 15.1223Z" fill="#265A46"/>
<path d="M15.537 34.0667C15.5952 34.183 15.6533 34.2993 15.7133 34.4191C15.626 34.4482 15.5388 34.4773 15.4489 34.5072C15.5361 34.5363 15.6234 34.5654 15.7133 34.5953C15.7714 34.5663 15.8296 34.5372 15.8895 34.5072C15.7568 34.8451 15.5729 35.012 15.2727 35.2121C14.7964 35.3953 14.3648 35.4089 13.8629 35.3884C14.0787 35.1429 14.3098 35.0209 14.6008 34.8762C15.0195 34.6549 15.2693 34.4545 15.537 34.0667Z" fill="#265A46"/>
<path d="M31.3974 19.616C31.3264 19.6414 31.2553 19.6667 31.1821 19.6927C30.9154 19.7878 30.6487 19.8829 30.3821 19.978C30.2672 20.0189 30.1524 20.0599 30.0375 20.1008C29.8713 20.16 29.705 20.2193 29.5388 20.2786C29.3803 20.3349 29.3803 20.3349 29.2187 20.3924C28.9818 20.4785 28.7482 20.5694 28.5145 20.6634C28.2254 20.7615 28.2254 20.7615 27.961 20.6734C28.4394 20.3463 28.9013 20.1249 29.4534 19.952C29.5522 19.9193 29.5522 19.9193 29.6529 19.8861C30.9363 19.4708 30.9363 19.4708 31.3974 19.616Z" fill="#EBF2F7"/>
<path d="M10.9551 19.6161C12.0405 19.6505 13.1583 20.0363 14.0391 20.6734C13.6997 20.8037 13.4963 20.7145 13.1665 20.5836C13.0663 20.5443 12.9661 20.5051 12.8628 20.4647C12.7063 20.4017 12.7063 20.4017 12.5466 20.3375C12.4427 20.2965 12.3387 20.2556 12.2315 20.2134C11.9525 20.1033 11.674 19.9922 11.3957 19.8804C11.2488 19.8216 11.102 19.7629 10.9551 19.7042C10.9551 19.6751 10.9551 19.646 10.9551 19.6161Z" fill="#E6EFF7"/>
<path d="M13.246 14.4174C14.0881 15.1015 14.7955 15.903 15.2727 16.8845C15.2436 16.9718 15.2145 17.059 15.1845 17.1489C14.8897 16.7679 14.5962 16.3859 14.3034 16.0034C14.2554 15.9408 14.2074 15.8781 14.1579 15.8136C14.0113 15.6221 13.8654 15.4301 13.7197 15.2379C13.6727 15.1767 13.6258 15.1155 13.5774 15.0524C13.246 14.6138 13.246 14.6138 13.246 14.4174Z" fill="#EDF4F9"/>
<path d="M28.5778 14.5055C28.5778 14.821 28.5126 14.8896 28.3265 15.1371C28.2733 15.2086 28.22 15.2801 28.1651 15.3537C28.0804 15.4654 28.0804 15.4654 27.994 15.5794C27.9396 15.6521 27.8852 15.7249 27.8292 15.7998C27.7208 15.9446 27.612 16.089 27.5028 16.2331C27.3978 16.3728 27.2941 16.5135 27.1918 16.6552C27.1451 16.7196 27.0984 16.7841 27.0503 16.8505C27.0091 16.9081 26.9679 16.9657 26.9255 17.0251C26.8892 17.0659 26.8529 17.1068 26.8155 17.1489C26.7574 17.1489 26.6992 17.1489 26.6393 17.1489C27.0347 16.0912 27.793 15.2903 28.5778 14.5055Z" fill="#EBF2F8"/>
<path d="M15.6251 24.0217C15.4428 24.2221 15.2903 24.3335 15.0383 24.4313C14.976 24.4561 14.9137 24.4808 14.8495 24.5063C14.7838 24.5318 14.7181 24.5572 14.6504 24.5834C14.1306 24.7896 13.6299 25.0079 13.139 25.2773C13.0871 25.2991 13.0352 25.321 12.9817 25.3434C12.9236 25.3143 12.8654 25.2853 12.8055 25.2553C13.6147 24.6379 14.5719 23.9925 15.6251 24.0217Z" fill="#F2F8FB"/>
<path d="M20.9119 15.4747C20.9701 15.4747 21.0283 15.4747 21.0882 15.4747C21.1672 16.0142 21.1897 16.5379 21.1873 17.0828C21.1876 17.1607 21.188 17.2386 21.1883 17.3189C21.1882 17.4317 21.1882 17.4317 21.188 17.5468C21.1879 17.6143 21.1878 17.6818 21.1877 17.7513C21.1762 17.9425 21.1407 18.1105 21.0882 18.2943C21.03 18.2943 20.9719 18.2943 20.9119 18.2943C20.9119 17.3639 20.9119 16.4334 20.9119 15.4747Z" fill="#ECF3F7"/>
<path d="M26.4631 24.0217C27.5525 24.0846 28.4166 24.6365 29.2827 25.2553C29.1955 25.2989 29.1955 25.2989 29.1065 25.3434C28.9008 25.2687 28.9008 25.2687 28.6453 25.1493C28.5528 25.1065 28.4604 25.0637 28.3651 25.0195C28.2681 24.9738 28.1711 24.928 28.0712 24.8808C27.9755 24.8364 27.8799 24.792 27.7814 24.7463C27.3387 24.5401 26.8992 24.3294 26.4631 24.1098C26.4631 24.0808 26.4631 24.0517 26.4631 24.0217Z" fill="#EDF3F9"/>
<path d="M14.4797 16.2677C14.7753 16.54 14.9901 16.7552 15.0965 17.1489C15.0674 17.207 15.0383 17.2652 15.0084 17.3251C15.0665 17.3251 15.1247 17.3251 15.1846 17.3251C15.2137 17.4123 15.2427 17.4996 15.2727 17.5894C15.3943 17.6695 15.5162 17.7491 15.6399 17.8259C15.964 18.0587 16.2313 18.3592 16.5063 18.6468C16.4772 18.705 16.4481 18.7631 16.4182 18.823C16.3627 18.7625 16.3073 18.702 16.2502 18.6396C15.6631 18.0216 15.2419 17.7223 14.3916 17.5894C14.4206 17.5313 14.4497 17.4731 14.4797 17.4132C14.5378 17.4132 14.596 17.4132 14.6559 17.4132C14.7775 17.1736 14.7775 17.1736 14.8321 16.8845C14.6749 16.6402 14.6749 16.6402 14.4797 16.444C14.4797 16.3858 14.4797 16.3277 14.4797 16.2677Z" fill="#265A46"/>
<path d="M14.0391 32.5687C14.0972 32.5978 14.1554 32.6269 14.2153 32.6569C14.158 32.8043 14.099 32.951 14.0391 33.0974C14.0173 33.161 13.9955 33.2246 13.973 33.2902C13.8089 33.5281 13.6057 33.5553 13.3342 33.6261C13.3342 33.6552 13.3342 33.6843 13.3342 33.7142C13.1597 33.7142 12.9852 33.7142 12.8055 33.7142C12.8637 33.6851 12.9218 33.6561 12.9817 33.6261C12.9817 33.5389 12.9817 33.4516 12.9817 33.3618C13.1541 33.2387 13.3312 33.1222 13.5104 33.0093C13.691 32.867 13.8645 32.7184 14.0391 32.5687Z" fill="#265A46"/>
<path d="M25.4057 15.1223C25.2773 15.4862 25.1222 15.7919 24.8771 16.0915C24.5907 16.1686 24.5907 16.1686 24.3484 16.1796C24.3193 16.0924 24.2902 16.0052 24.2603 15.9153C24.4177 15.7826 24.5757 15.6505 24.7339 15.5188C24.8218 15.4452 24.9097 15.3716 25.0003 15.2957C25.2295 15.1223 25.2295 15.1223 25.4057 15.1223Z" fill="#265A46"/>
<path d="M26.0225 34.2429C26.1933 34.2704 26.1933 34.2704 26.375 34.331C26.4041 34.4182 26.4331 34.5055 26.4631 34.5954C26.514 34.6081 26.5649 34.6208 26.6173 34.6339C26.8156 34.6835 26.8156 34.6835 27.0193 34.8487C27.2953 35.0669 27.5467 35.1723 27.8729 35.3003C27.4459 35.4426 27.1264 35.2967 26.7274 35.124C26.3524 34.8876 26.1973 34.6477 26.0225 34.2429Z" fill="#265A46"/>
<path d="M18.9735 36.5339C19.0316 36.5629 19.0898 36.592 19.1497 36.622C18.5962 37.4226 18.5962 37.4226 18.1804 37.5912C18.0932 37.5621 18.006 37.5331 17.9161 37.5031C18.2191 37.0256 18.4552 36.7686 18.9735 36.5339Z" fill="#265A46"/>
<path d="M21.3525 10.8047C21.6053 10.9265 21.8424 11.0621 22.0794 11.2122C22.1417 11.2515 22.2039 11.2908 22.268 11.3313C22.3148 11.3611 22.3616 11.3908 22.4099 11.4215C22.3226 11.4506 22.2354 11.4797 22.1455 11.5096C21.8647 11.3389 21.8647 11.3389 21.6168 11.1572C21.7873 11.7159 21.9376 11.961 22.4099 12.3026C22.468 12.3608 22.5262 12.4189 22.5861 12.4789C22.3449 12.4718 22.1902 12.4301 22.0078 12.2692C21.6131 11.8281 21.3525 11.4117 21.3525 10.8047Z" fill="#FA400B"/>
<path d="M24.084 16.3558C24.1713 16.3849 24.2585 16.414 24.3484 16.444C24.263 16.9252 24.263 16.9252 24.1722 17.1489C23.9409 17.281 23.9409 17.281 23.7316 17.3251C23.6435 17.0608 23.6435 17.0608 23.7591 16.7413C23.9078 16.444 23.9078 16.444 24.084 16.3558Z" fill="#265A46"/>
<path d="M20.5595 36.7101C20.5885 36.7682 20.6176 36.8264 20.6476 36.8863C20.6067 36.9599 20.6067 36.9599 20.565 37.035C20.4373 37.3128 20.4597 37.5537 20.4713 37.8556C20.495 37.8029 20.5186 37.7502 20.5429 37.6959C20.6476 37.5031 20.6476 37.5031 20.9119 37.2388C20.8538 37.6749 20.7956 38.1111 20.7357 38.5605C20.3699 38.1947 20.2831 38.0466 20.2731 37.5582C20.2754 37.2063 20.3395 36.9943 20.5595 36.7101Z" fill="#265A46"/>
<path d="M19.5902 5.60604C19.6484 5.60604 19.7065 5.60604 19.7665 5.60604C19.9186 5.76024 19.9186 5.76024 20.0859 5.95849C20.1415 6.02391 20.1972 6.08934 20.2545 6.15675C20.297 6.20763 20.3395 6.25852 20.3832 6.31094C20.1189 6.31094 20.1189 6.31094 19.9427 6.22283C20.2406 6.58729 20.53 6.91128 20.9119 7.19208C20.454 7.11218 20.1634 6.81896 19.8546 6.48717C19.6773 6.20043 19.5902 5.94739 19.5902 5.60604Z" fill="#FB4411"/>
<path d="M15.9776 15.8272C16.0066 15.8272 16.0357 15.8272 16.0657 15.8272C16.071 15.9282 16.0763 16.0291 16.0818 16.1332C16.0893 16.268 16.0967 16.4028 16.1042 16.5376C16.1077 16.6039 16.1111 16.6701 16.1147 16.7384C16.1376 17.1442 16.1784 17.5404 16.2419 17.9419C16.0674 18.0291 16.0674 18.0291 15.8894 18.1181C15.8313 18.0018 15.7731 17.8855 15.7132 17.7657C15.7714 17.7657 15.8295 17.7657 15.8894 17.7657C15.9185 17.126 15.9476 16.4863 15.9776 15.8272Z" fill="#265A46"/>
<path d="M13.951 33.2736C14.0091 33.3027 14.0673 33.3318 14.1272 33.3618C14.0135 33.4335 13.8996 33.505 13.7858 33.5765C13.7224 33.6164 13.659 33.6563 13.5937 33.6974C13.3173 33.8666 13.1617 33.9006 12.8386 33.896C12.7305 33.8948 12.7305 33.8948 12.6203 33.8935C12.5375 33.892 12.5375 33.892 12.4531 33.8904C12.424 33.8323 12.3949 33.7741 12.3649 33.7142C12.5685 33.627 12.772 33.5398 12.9817 33.4499C12.9817 33.508 12.9817 33.5662 12.9817 33.6261C13.069 33.597 13.1562 33.5679 13.2461 33.538C13.3515 33.5089 13.4569 33.4798 13.5655 33.4499C13.8462 33.3924 13.8462 33.3924 13.951 33.2736Z" fill="#265A46"/>
<path d="M16.5062 15.1223C17.0812 15.2301 17.4238 15.4981 17.8279 15.9153C17.9152 16.0461 17.9152 16.0461 18.0042 16.1796C17.9751 16.2669 17.946 16.3541 17.9161 16.444C17.882 16.3951 17.8479 16.3463 17.8128 16.296C17.7669 16.2321 17.721 16.1683 17.6737 16.1025C17.6063 16.0075 17.6063 16.0075 17.5374 15.9105C17.3808 15.7315 17.2528 15.6528 17.0349 15.5628C17.0349 15.6501 17.0349 15.7373 17.0349 15.8272C16.9465 15.7264 16.8585 15.6254 16.7706 15.5243C16.7215 15.4681 16.6724 15.4118 16.6219 15.3539C16.5062 15.2104 16.5062 15.2104 16.5062 15.1223Z" fill="#265A46"/>
<path d="M28.7541 20.0566C28.8413 20.0857 28.9285 20.1148 29.0184 20.1447C28.6985 20.3192 28.3787 20.4937 28.0491 20.6734C28.1364 20.7316 28.2236 20.7897 28.3135 20.8496C28.1681 20.8496 28.0227 20.8496 27.8729 20.8496C27.8438 20.7333 27.8148 20.617 27.7848 20.4972C27.6976 20.4972 27.6103 20.4972 27.5205 20.4972C27.5786 20.3809 27.6368 20.2646 27.6967 20.1447C27.773 20.1793 27.8493 20.2138 27.928 20.2494C28.3042 20.3399 28.4249 20.2395 28.7541 20.0566Z" fill="#265A46"/>
<path d="M31.3975 19.6161C30.6124 19.8778 30.6124 19.8778 29.8114 20.1447C29.8114 20.0575 29.8114 19.9703 29.8114 19.8804C30.9195 19.4966 30.9195 19.4966 31.3975 19.6161Z" fill="#E0EBF4"/>
<path d="M18.2685 17.237C18.3566 17.5013 18.3566 17.5013 18.2685 17.7657C18.2104 17.7657 18.1522 17.7657 18.0923 17.7657C18.0632 18.1728 18.0341 18.5798 18.0042 18.9993C17.9751 18.9993 17.946 18.9993 17.9161 18.9993C17.887 18.4468 17.8579 17.8943 17.828 17.3251C17.9152 17.3251 18.0024 17.3251 18.0923 17.3251C18.1505 17.296 18.2086 17.267 18.2685 17.237Z" fill="#265A46"/>
<path d="M16.8587 15.3866C17.325 15.51 17.5438 15.8144 17.828 16.1796C17.7407 16.2378 17.6535 16.2959 17.5636 16.3559C17.5346 16.2686 17.5055 16.1814 17.4755 16.0915C17.4192 16.0806 17.3628 16.0697 17.3048 16.0585C17.2448 16.0403 17.1849 16.0221 17.1231 16.0034C17.0184 15.7886 17.0184 15.7886 16.9468 15.5628C16.9178 15.5047 16.8887 15.4465 16.8587 15.3866Z" fill="#265A46"/>
<path d="M25.1414 34.9478C25.5323 35.2578 25.6278 35.631 25.7582 36.0933C25.252 35.7203 25.252 35.7203 25.1414 35.3884C25.1304 35.1461 25.1304 35.1461 25.1414 34.9478Z" fill="#265A46"/>
<path d="M23.2029 19.8804C23.232 19.9386 23.2611 19.9967 23.291 20.0566C23.1902 20.2511 23.1902 20.2511 23.0432 20.4807C22.8941 20.7148 22.7691 20.9181 22.6787 21.1811C22.5861 21.3783 22.5861 21.3783 22.3989 21.4499C22.3444 21.4554 22.2898 21.4608 22.2337 21.4664C22.8767 20.3501 22.8767 20.3501 23.2029 19.8804Z" fill="#265A46"/>
<path d="M10.7789 19.4398C11.0987 19.4398 11.4186 19.4398 11.7481 19.4398C11.7481 19.498 11.7481 19.5561 11.7481 19.6161C11.8033 19.6267 11.8585 19.6374 11.9154 19.6484C11.9874 19.6632 12.0594 19.6779 12.1336 19.6932C12.2052 19.7075 12.2767 19.7218 12.3505 19.7365C12.5412 19.7923 12.5412 19.7923 12.7174 19.9685C12.0647 19.8458 11.422 19.6937 10.7789 19.5279C10.7789 19.4989 10.7789 19.4698 10.7789 19.4398Z" fill="#265A46"/>
<path d="M15.1845 34.6835C15.2427 34.7125 15.3008 34.7416 15.3608 34.7716C15.3167 34.9423 15.3167 34.9423 15.1845 35.124C14.9469 35.1846 14.7262 35.1962 14.4796 35.2121C14.4796 35.1249 14.4796 35.0377 14.4796 34.9478C14.7133 34.8531 14.9452 34.7632 15.1845 34.6835Z" fill="#265A46"/>
<path d="M9.19286 18.4706C8.90208 18.5869 8.61131 18.7032 8.31172 18.823C8.36988 19.0266 8.42803 19.2301 8.48795 19.4398C8.2479 19.2325 8.15187 19.0323 8.04738 18.7349C8.17159 18.6731 8.29657 18.6128 8.42186 18.5532C8.49138 18.5194 8.56089 18.4857 8.63251 18.451C8.8404 18.3825 8.8404 18.3825 9.19286 18.4706Z" fill="#265A46"/>
<path d="M28.0492 33.2737C28.33 33.2461 28.33 33.2461 28.6659 33.2737C28.9248 33.4939 28.9248 33.4939 29.1065 33.7142C28.9083 33.7748 28.9083 33.7748 28.6659 33.8023C28.4255 33.6609 28.241 33.4751 28.0492 33.2737Z" fill="#265A46"/>
<path d="M18.6076 9.21012C18.7883 9.21292 18.969 9.21582 19.1497 9.21872C19.0915 9.27682 19.0334 9.33502 18.9734 9.39492C18.8281 9.39492 18.6827 9.39492 18.5329 9.39492C18.6201 9.71482 18.7073 10.0346 18.7972 10.3641C18.7391 10.3641 18.6809 10.3641 18.621 10.3641C18.5745 10.1899 18.5287 10.0155 18.4833 9.84102C18.445 9.69532 18.445 9.69532 18.4059 9.54672C18.3896 9.46752 18.3734 9.38842 18.3566 9.30682C18.4448 9.21872 18.4448 9.21872 18.6076 9.21012Z" fill="#FB3E05"/>
<path d="M25.4057 15.1223C25.2901 15.4691 25.1485 15.671 24.877 15.9153C24.877 15.8281 24.877 15.7408 24.877 15.6509C24.7898 15.6509 24.7026 15.6509 24.6127 15.6509C24.7113 15.5623 24.8106 15.4743 24.9101 15.3866C24.9929 15.313 24.9929 15.313 25.0773 15.2379C25.2295 15.1223 25.2295 15.1223 25.4057 15.1223Z" fill="#265A46"/>
<path d="M7.16623 8.69002C7.22438 8.71912 7.28254 8.74812 7.34246 8.77812C7.28975 8.84352 7.23705 8.90892 7.18275 8.97642C7.06687 9.12202 6.95384 9.27012 6.84682 9.42242C6.78684 9.49602 6.78684 9.49602 6.72566 9.57112C6.66751 9.57112 6.60935 9.57112 6.54943 9.57112C6.52036 9.62932 6.49128 9.68742 6.46132 9.74732C6.51566 9.39422 6.69218 9.14992 6.90189 8.86622C6.98912 8.80812 7.07635 8.74992 7.16623 8.69002Z" fill="#265A46"/>
<path d="M25.1414 18.1181C25.2286 18.1472 25.3158 18.1763 25.4057 18.2062C25.1358 18.6182 24.7782 18.7857 24.3483 18.9993C24.4308 18.9019 24.5135 18.8046 24.5962 18.7074C24.6422 18.6532 24.6882 18.599 24.7356 18.5432C24.8657 18.3953 25.0004 18.2557 25.1414 18.1181Z" fill="#265A46"/>
<path d="M16.4181 10.0998C16.4763 10.0998 16.5344 10.0998 16.5944 10.0998C16.8783 10.5645 16.8783 10.5645 16.9468 10.7166C16.9177 10.7748 16.8887 10.8329 16.8587 10.8928C16.7715 10.8928 16.6842 10.8928 16.5944 10.8928C16.4181 10.7166 16.4181 10.7166 16.4071 10.3972C16.4108 10.2991 16.4144 10.2009 16.4181 10.0998Z" fill="#FB3D08"/>
<path d="M23.5554 17.4132C23.7735 17.4568 23.7735 17.4568 23.9959 17.5013C23.9959 17.734 23.9959 17.9666 23.9959 18.2062C23.8252 18.1071 23.8252 18.1071 23.6435 17.9419C23.5774 17.661 23.5774 17.661 23.5554 17.4132Z" fill="#265A46"/>
<path d="M16.5944 10.9809C16.6307 11.03 16.6671 11.0791 16.7045 11.1296C16.8132 11.2732 16.9276 11.4125 17.046 11.5482C17.2164 11.7811 17.2669 11.9313 17.2993 12.2145C16.9757 11.9172 16.7627 11.6528 16.5944 11.2453C16.5944 11.158 16.5944 11.0708 16.5944 10.9809Z" fill="#FB420D"/>
<path d="M28.4897 33.0974C28.8054 33.2431 29.0897 33.4217 29.3708 33.6261C29.3708 33.6843 29.3708 33.7424 29.3708 33.8023C29.1964 33.8023 29.0219 33.8023 28.8422 33.8023C28.9003 33.7442 28.9585 33.686 29.0184 33.6261C28.9312 33.5716 28.8439 33.5171 28.754 33.4609C28.6668 33.3991 28.5796 33.3373 28.4897 33.2737C28.4897 33.2155 28.4897 33.1573 28.4897 33.0974Z" fill="#265A46"/>
<path d="M27.168 16.6202C27.1971 16.7365 27.2262 16.8528 27.2561 16.9726C27.0524 17.1544 27.0524 17.1544 26.8156 17.3251C26.7283 17.296 26.6411 17.2669 26.5512 17.237C26.5803 17.0916 26.6094 16.9462 26.6393 16.7964C26.6684 16.8546 26.6975 16.9127 26.7275 16.9726C26.6984 17.0308 26.6693 17.089 26.6393 17.1489C26.7102 17.078 26.7811 17.0071 26.8541 16.9341C26.9588 16.8295 27.0634 16.7248 27.168 16.6202Z" fill="#265A46"/>
<path d="M20.9119 36.622C20.9701 36.622 21.0282 36.622 21.0881 36.622C21.1172 36.6801 21.1463 36.7383 21.1763 36.7982C21.2635 36.74 21.3507 36.6819 21.4406 36.622C21.3135 36.9185 21.147 37.1075 20.9119 37.3269C20.8784 37.1219 20.8491 36.9162 20.8238 36.7101C20.8529 36.681 20.882 36.6519 20.9119 36.622Z" fill="#265A46"/>
<path d="M15.6251 24.0217C15.4429 24.2682 15.348 24.2884 15.0359 24.3466C14.9395 24.3557 14.8432 24.3648 14.744 24.3742C14.7731 24.2869 14.8021 24.1997 14.8321 24.1098C15.0934 24.0072 15.3472 24.014 15.6251 24.0217Z" fill="#DBE9F3"/>
<path d="M13.5104 24.7266C13.5686 24.7557 13.6267 24.7848 13.6866 24.8148C13.6866 24.8729 13.6866 24.9311 13.6866 24.991C13.5733 25.0524 13.4594 25.1128 13.3452 25.1727C13.2501 25.2233 13.2501 25.2233 13.1531 25.2749C13.0966 25.2975 13.04 25.3201 12.9817 25.3434C12.9236 25.3144 12.8654 25.2853 12.8055 25.2553C13.0381 25.0809 13.2707 24.9064 13.5104 24.7266Z" fill="#DEEDF5"/>
<path d="M14.3915 26.1365C14.5078 26.1655 14.6242 26.1946 14.744 26.2246C14.4259 26.5146 14.2042 26.6252 13.7747 26.6651C14.1052 26.4008 14.1052 26.4008 14.3034 26.4008C14.3325 26.3136 14.3616 26.2263 14.3915 26.1365Z" fill="#265A46"/>
<path d="M35.5388 26.9295C35.5679 26.9876 35.5969 27.0458 35.6269 27.1057C35.4524 27.3674 35.4524 27.3674 35.2744 27.6344C35.2163 27.5762 35.1581 27.5181 35.0982 27.4582C35.0982 27.3418 35.0982 27.2255 35.0982 27.1057C35.1855 27.1348 35.2727 27.1639 35.3626 27.1938C35.4207 27.1066 35.4789 27.0193 35.5388 26.9295Z" fill="#265A46"/>
<path d="M29.6352 19.8804C29.6933 19.9095 29.7515 19.9386 29.8114 19.9685C29.8114 20.0267 29.8114 20.0848 29.8114 20.1447C29.6078 20.2029 29.4043 20.2611 29.1946 20.321C29.2662 20.1502 29.2662 20.1502 29.3708 19.9685C29.4581 19.9394 29.5453 19.9104 29.6352 19.8804Z" fill="#F5FAFB"/>
<path d="M26.1988 15.0341C26.2278 15.0923 26.2569 15.1505 26.2869 15.2104C26.2578 15.2685 26.2287 15.3267 26.1988 15.3866C26.2569 15.4157 26.3151 15.4448 26.375 15.4747C26.2587 15.6201 26.1424 15.7655 26.0225 15.9153C26.0349 15.7849 26.0479 15.6546 26.0611 15.5243C26.0682 15.4517 26.0754 15.3791 26.0828 15.3043C26.1107 15.1223 26.1107 15.1223 26.1988 15.0341Z" fill="#265A46"/>
</g>
</g>
</g>
<defs>
<clipPath id="clip0_2_1504">
<rect width="42" height="40" fill="white"/>
</clipPath>
</defs>
</svg>
