<svg width="42" height="52" viewBox="0 0 42 52" fill="none" xmlns="http://www.w3.org/2000/svg">
<path d="M34 0C38.4183 0 42 3.58172 42 8V44C42 48.4183 38.4183 52 34 52H8C3.58172 52 0 48.4183 0 44V8C0 3.58172 3.58172 0 8 0H34Z" fill="white"/>
<path d="M34 0C38.4183 0 42 3.58172 42 8V44C42 48.4183 38.4183 52 34 52H8C3.58172 52 0 48.4183 0 44V8C0 3.58172 3.58172 0 8 0H34Z" stroke="#E5E7EB"/>
<g clip-path="url(#clip0_161_5946)">
<path d="M33 17.75C33 18.5938 32.3297 19.3719 31.2 20C29.8359 20.7547 27.8016 21.2891 25.4672 21.4484C25.2937 21.3641 25.1203 21.2844 24.9375 21.2141C23.0906 20.4406 20.6344 20 18 20C17.6109 20 17.2312 20.0094 16.8516 20.0281L16.8 20C15.6703 19.3719 15 18.5938 15 17.75C15 15.6781 19.0312 14 24 14C28.9688 14 33 15.6781 33 17.75ZM16.5328 21.5516C17.0109 21.5188 17.5031 21.5 18 21.5C20.9156 21.5 23.5031 22.0766 25.1484 22.9719C26.3109 23.6047 27 24.3922 27 25.25C27 25.4375 26.9672 25.6203 26.9016 25.7984C26.6859 26.4172 26.1047 26.9844 25.2609 27.4625C25.2562 27.4672 25.2469 27.4672 25.2422 27.4719C25.2281 27.4812 25.2141 27.4859 25.2 27.4953C23.5594 28.4047 20.9438 28.9953 18 28.9953C15.2063 28.9953 12.7078 28.4656 11.0531 27.6312C10.9641 27.5891 10.8797 27.5422 10.7953 27.4953C9.67031 26.8719 9 26.0938 9 25.25C9 23.6187 11.5031 22.2266 15 21.7156C15.4922 21.6453 16.0031 21.5891 16.5328 21.5516ZM28.5 25.25C28.5 24.2234 28.0031 23.3797 27.3703 22.7469C28.6969 22.5406 29.9109 22.2125 30.9422 21.7859C31.7063 21.4672 32.4188 21.0734 33 20.5906V22.25C33 23.1547 32.2266 23.9891 30.9469 24.6359C30.2625 24.9828 29.4281 25.2781 28.4906 25.5031C28.4953 25.4187 28.5 25.3391 28.5 25.2547V25.25ZM27 29.75C27 30.5938 26.3297 31.3719 25.2 32C25.1156 32.0469 25.0312 32.0891 24.9422 32.1359C23.2922 32.9703 20.7937 33.5 18 33.5C15.0563 33.5 12.4406 32.9094 10.8 32C9.67031 31.3719 9 30.5938 9 29.75V28.0906C9.58594 28.5734 10.2938 28.9672 11.0578 29.2859C12.9094 30.0594 15.3656 30.5 18 30.5C20.6344 30.5 23.0906 30.0594 24.9422 29.2859C25.3078 29.1359 25.6594 28.9625 25.9922 28.775C26.2781 28.6156 26.5453 28.4375 26.7984 28.25C26.8688 28.1984 26.9344 28.1422 27 28.0906V29.75ZM28.5 29.75V27.0359C29.3906 26.8391 30.2109 26.5906 30.9422 26.2859C31.7063 25.9672 32.4188 25.5734 33 25.0906V26.75C33 27.2422 32.7656 27.7344 32.3016 28.1984C31.5375 28.9625 30.1922 29.5906 28.4906 29.9984C28.4953 29.9187 28.5 29.8344 28.5 29.75ZM18 35C20.6344 35 23.0906 34.5594 24.9422 33.7859C25.7063 33.4672 26.4188 33.0734 27 32.5906V34.25C27 36.3219 22.9688 38 18 38C13.0312 38 9 36.3219 9 34.25V32.5906C9.58594 33.0734 10.2938 33.4672 11.0578 33.7859C12.9094 34.5594 15.3656 35 18 35Z" fill="url(#paint0_linear_161_5946)"/>
</g>
<defs>
<linearGradient id="paint0_linear_161_5946" x1="21" y1="14" x2="21" y2="38" gradientUnits="userSpaceOnUse">
<stop stop-color="#FFF024"/>
<stop offset="1" stop-color="#C79E24"/>
</linearGradient>
<clipPath id="clip0_161_5946">
<rect width="24" height="24" fill="white" transform="translate(9 14)"/>
</clipPath>
</defs>
</svg>
