<svg width="20" height="20" viewBox="0 0 20 20" fill="none" xmlns="http://www.w3.org/2000/svg">
<path d="M4.99984 11.668H14.9998V10.0013H4.99984V11.668ZM4.99984 9.16797H14.9998V7.5013H4.99984V9.16797ZM4.99984 6.66797H14.9998V5.0013H4.99984V6.66797ZM3.33317 15.0013C2.87484 15.0013 2.48248 14.8381 2.15609 14.5117C1.8297 14.1853 1.6665 13.793 1.6665 13.3346V3.33464C1.6665 2.8763 1.8297 2.48394 2.15609 2.15755C2.48248 1.83116 2.87484 1.66797 3.33317 1.66797H16.6665C17.1248 1.66797 17.5172 1.83116 17.8436 2.15755C18.17 2.48394 18.3332 2.8763 18.3332 3.33464V18.3346L14.9998 15.0013H3.33317Z" fill="#6F6F6F"/>
</svg>
