<svg width="42" height="52" viewBox="0 0 42 52" fill="none" xmlns="http://www.w3.org/2000/svg">
<path d="M34 0C38.4183 0 42 3.58172 42 8V44C42 48.4183 38.4183 52 34 52H8C3.58172 52 0 48.4183 0 44V8C0 3.58172 3.58172 0 8 0H34Z" fill="white"/>
<path d="M34 0C38.4183 0 42 3.58172 42 8V44C42 48.4183 38.4183 52 34 52H8C3.58172 52 0 48.4183 0 44V8C0 3.58172 3.58172 0 8 0H34Z" stroke="#E5E7EB"/>
<path d="M21 26C19.9 26 18.9583 25.6083 18.175 24.825C17.3917 24.0417 17 23.1 17 22C17 20.9 17.3917 19.9583 18.175 19.175C18.9583 18.3917 19.9 18 21 18C22.1 18 23.0417 18.3917 23.825 19.175C24.6083 19.9583 25 20.9 25 22C25 23.1 24.6083 24.0417 23.825 24.825C23.0417 25.6083 22.1 26 21 26ZM13 34V31.2C13 30.6333 13.1458 30.1125 13.4375 29.6375C13.7292 29.1625 14.1167 28.8 14.6 28.55C15.6333 28.0333 16.6833 27.6458 17.75 27.3875C18.8167 27.1292 19.9 27 21 27C22.1 27 23.1833 27.1292 24.25 27.3875C25.3167 27.6458 26.3667 28.0333 27.4 28.55C27.8833 28.8 28.2708 29.1625 28.5625 29.6375C28.8542 30.1125 29 30.6333 29 31.2V34H13ZM15 32H27V31.2C27 31.0167 26.9542 30.85 26.8625 30.7C26.7708 30.55 26.65 30.4333 26.5 30.35C25.6 29.9 24.6917 29.5625 23.775 29.3375C22.8583 29.1125 21.9333 29 21 29C20.0667 29 19.1417 29.1125 18.225 29.3375C17.3083 29.5625 16.4 29.9 15.5 30.35C15.35 30.4333 15.2292 30.55 15.1375 30.7C15.0458 30.85 15 31.0167 15 31.2V32ZM21 24C21.55 24 22.0208 23.8042 22.4125 23.4125C22.8042 23.0208 23 22.55 23 22C23 21.45 22.8042 20.9792 22.4125 20.5875C22.0208 20.1958 21.55 20 21 20C20.45 20 19.9792 20.1958 19.5875 20.5875C19.1958 20.9792 19 21.45 19 22C19 22.55 19.1958 23.0208 19.5875 23.4125C19.9792 23.8042 20.45 24 21 24Z" fill="#2563EB"/>
</svg>
