<svg width="20" height="20" viewBox="0 0 20 20" fill="none" xmlns="http://www.w3.org/2000/svg">
<path d="M8.33317 9.9987C7.4165 9.9987 6.63178 9.67231 5.979 9.01953C5.32623 8.36675 4.99984 7.58203 4.99984 6.66536C4.99984 5.7487 5.32623 4.96398 5.979 4.3112C6.63178 3.65842 7.4165 3.33203 8.33317 3.33203C9.24984 3.33203 10.0346 3.65842 10.6873 4.3112C11.3401 4.96398 11.6665 5.7487 11.6665 6.66536C11.6665 7.58203 11.3401 8.36675 10.6873 9.01953C10.0346 9.67231 9.24984 9.9987 8.33317 9.9987ZM1.6665 16.6654V14.332C1.6665 13.8737 1.78456 13.4431 2.02067 13.0404C2.25678 12.6376 2.58317 12.332 2.99984 12.1237C3.70817 11.7626 4.50678 11.457 5.39567 11.207C6.28456 10.957 7.26373 10.832 8.33317 10.832H8.62484C8.70817 10.832 8.7915 10.8459 8.87484 10.8737C8.76373 11.1237 8.66998 11.3841 8.59359 11.6549C8.5172 11.9258 8.45817 12.207 8.4165 12.4987H8.33317C7.34706 12.4987 6.46164 12.6237 5.67692 12.8737C4.8922 13.1237 4.24984 13.3737 3.74984 13.6237C3.62484 13.6931 3.52414 13.7904 3.44775 13.9154C3.37137 14.0404 3.33317 14.1793 3.33317 14.332V14.9987H8.58317C8.6665 15.2904 8.77762 15.5786 8.9165 15.8633C9.05539 16.148 9.20817 16.4154 9.37484 16.6654H1.6665ZM13.3332 17.4987L13.0832 16.2487C12.9165 16.1793 12.7603 16.1063 12.6144 16.0299C12.4686 15.9536 12.3193 15.8598 12.1665 15.7487L10.9582 16.1237L10.1248 14.707L11.0832 13.8737C11.0554 13.6793 11.0415 13.4987 11.0415 13.332C11.0415 13.1654 11.0554 12.9848 11.0832 12.7904L10.1248 11.957L10.9582 10.5404L12.1665 10.9154C12.3193 10.8043 12.4686 10.7105 12.6144 10.6341C12.7603 10.5577 12.9165 10.4848 13.0832 10.4154L13.3332 9.16536H14.9998L15.2498 10.4154C15.4165 10.4848 15.5728 10.5612 15.7186 10.6445C15.8644 10.7279 16.0137 10.832 16.1665 10.957L17.3748 10.5404L18.2082 11.9987L17.2498 12.832C17.2776 12.9987 17.2915 13.1723 17.2915 13.3529C17.2915 13.5334 17.2776 13.707 17.2498 13.8737L18.2082 14.707L17.3748 16.1237L16.1665 15.7487C16.0137 15.8598 15.8644 15.9536 15.7186 16.0299C15.5728 16.1063 15.4165 16.1793 15.2498 16.2487L14.9998 17.4987H13.3332ZM14.1665 14.9987C14.6248 14.9987 15.0172 14.8355 15.3436 14.5091C15.67 14.1827 15.8332 13.7904 15.8332 13.332C15.8332 12.8737 15.67 12.4813 15.3436 12.1549C15.0172 11.8286 14.6248 11.6654 14.1665 11.6654C13.7082 11.6654 13.3158 11.8286 12.9894 12.1549C12.663 12.4813 12.4998 12.8737 12.4998 13.332C12.4998 13.7904 12.663 14.1827 12.9894 14.5091C13.3158 14.8355 13.7082 14.9987 14.1665 14.9987ZM8.33317 8.33203C8.7915 8.33203 9.18387 8.16884 9.51025 7.84245C9.83664 7.51606 9.99984 7.1237 9.99984 6.66536C9.99984 6.20703 9.83664 5.81467 9.51025 5.48828C9.18387 5.16189 8.7915 4.9987 8.33317 4.9987C7.87484 4.9987 7.48248 5.16189 7.15609 5.48828C6.8297 5.81467 6.6665 6.20703 6.6665 6.66536C6.6665 7.1237 6.8297 7.51606 7.15609 7.84245C7.48248 8.16884 7.87484 8.33203 8.33317 8.33203Z" fill="#6F6F6F"/>
</svg>
