<svg width="20" height="20" viewBox="0 0 20 20" fill="none" xmlns="http://www.w3.org/2000/svg">
<path d="M9.16683 15.832H10.8335V13.332H13.3335V11.6654H10.8335V9.16537H9.16683V11.6654H6.66683V13.332H9.16683V15.832ZM5.00016 18.332C4.54183 18.332 4.14947 18.1688 3.82308 17.8424C3.49669 17.5161 3.3335 17.1237 3.3335 16.6654V8.33203C3.3335 7.8737 3.49669 7.48134 3.82308 7.15495C4.14947 6.82856 4.54183 6.66536 5.00016 6.66536H5.8335V4.9987C5.8335 3.84592 6.23975 2.86328 7.05225 2.05078C7.86475 1.23828 8.84738 0.832031 10.0002 0.832031C11.1529 0.832031 12.1356 1.23828 12.9481 2.05078C13.7606 2.86328 14.1668 3.84592 14.1668 4.9987V6.66536H15.0002C15.4585 6.66536 15.8509 6.82856 16.1772 7.15495C16.5036 7.48134 16.6668 7.8737 16.6668 8.33203V16.6654C16.6668 17.1237 16.5036 17.5161 16.1772 17.8424C15.8509 18.1688 15.4585 18.332 15.0002 18.332H5.00016ZM5.00016 16.6654H15.0002V8.33203H5.00016V16.6654ZM7.50016 6.66536H12.5002V4.9987C12.5002 4.30425 12.2571 3.71398 11.771 3.22786C11.2849 2.74175 10.6946 2.4987 10.0002 2.4987C9.30572 2.4987 8.71544 2.74175 8.22933 3.22786C7.74322 3.71398 7.50016 4.30425 7.50016 4.9987V6.66536Z" fill="#6F6F6F"/>
</svg>
