<svg width="42" height="52" viewBox="0 0 42 52" fill="none" xmlns="http://www.w3.org/2000/svg">
<path d="M34 0C38.4183 0 42 3.58172 42 8V44C42 48.4183 38.4183 52 34 52H8C3.58172 52 0 48.4183 0 44V8C0 3.58172 3.58172 0 8 0H34Z" fill="white"/>
<path d="M34 0C38.4183 0 42 3.58172 42 8V44C42 48.4183 38.4183 52 34 52H8C3.58172 52 0 48.4183 0 44V8C0 3.58172 3.58172 0 8 0H34Z" stroke="#E5E7EB"/>
<path d="M13 36C12.45 36 11.9792 35.8042 11.5875 35.4125C11.1958 35.0208 11 34.55 11 34V22C11 21.45 11.1958 20.9792 11.5875 20.5875C11.9792 20.1958 12.45 20 13 20H17L21 16L25 20H29C29.55 20 30.0208 20.1958 30.4125 20.5875C30.8042 20.9792 31 21.45 31 22V34C31 34.55 30.8042 35.0208 30.4125 35.4125C30.0208 35.8042 29.55 36 29 36H13ZM15 32H27L23.25 27L20.25 31L18 28L15 32ZM26.5 27C26.9167 27 27.2708 26.8542 27.5625 26.5625C27.8542 26.2708 28 25.9167 28 25.5C28 25.0833 27.8542 24.7292 27.5625 24.4375C27.2708 24.1458 26.9167 24 26.5 24C26.0833 24 25.7292 24.1458 25.4375 24.4375C25.1458 24.7292 25 25.0833 25 25.5C25 25.9167 25.1458 26.2708 25.4375 26.5625C25.7292 26.8542 26.0833 27 26.5 27ZM19.1 20H22.9L21 18.1L19.1 20Z" fill="#DB2777"/>
</svg>
