<svg width="20" height="20" viewBox="0 0 20 20" fill="none" xmlns="http://www.w3.org/2000/svg">
<path d="M3.33317 16.6654C2.87484 16.6654 2.48248 16.5022 2.15609 16.1758C1.8297 15.8494 1.6665 15.457 1.6665 14.9987V4.9987C1.6665 4.54036 1.8297 4.148 2.15609 3.82161C2.48248 3.49523 2.87484 3.33203 3.33317 3.33203H8.33317L9.99984 4.9987H16.6665C17.1248 4.9987 17.5172 5.16189 17.8436 5.48828C18.17 5.81467 18.3332 6.20703 18.3332 6.66536V14.9987C18.3332 15.457 18.17 15.8494 17.8436 16.1758C17.5172 16.5022 17.1248 16.6654 16.6665 16.6654H3.33317ZM10.4998 13.9154L12.4165 12.457L14.3332 13.9154L13.6248 11.5404L15.5415 9.9987H13.1665L12.4165 7.66536L11.6665 9.9987H9.2915L11.2082 11.5404L10.4998 13.9154Z" fill="#6F6F6F"/>
</svg>
